<?xml version="1.0" encoding="UTF-8" standalone="no"?>
<!-- Created with Inkscape (http://www.inkscape.org/) -->

<svg
   width="24.133453mm"
   height="30.807558mm"
   x = "0.0" 
   y ="0.0"
   viewBox="0 0 24.133453 30.807559"
   version="1.1"
   id="walker"
   opacity = '1'
   xml:space="preserve"
   xmlns="http://www.w3.org/2000/svg"
   xmlns:svg="http://www.w3.org/2000/svg"><defs
     id="defs1" /><g
     id="layer1"
     transform="translate(-13.642725,-88.241987)"><path
       style="opacity:1;fill:#2274a5;fill-opacity:0.996078;stroke-width:0.973931;stroke-miterlimit:3.9"
       d="m 32.085394,98.235578 c 0.134539,-0.04843 0.403617,-0.145302 0.699608,-0.182973 0.295992,-0.03767 0.618878,-0.01614 0.866432,0.02691 0.247555,0.04305 0.419762,0.107631 0.575829,0.220646 0.156066,0.113015 0.295984,0.274458 0.403616,0.408998 0.107631,0.13454 0.182974,0.242172 0.252935,0.360568 0.06996,0.118395 0.13454,0.247551 0.16683,0.382091 0.03229,0.134541 0.03229,0.274458 0.02153,0.430526 -0.01076,0.156067 -0.03229,0.328277 -0.04305,0.468197 -0.01076,0.13992 -0.01076,0.24755 0,0.34442 0.01076,0.0969 0.03229,0.18297 0.06997,0.24756 0.03768,0.0646 0.09147,0.10762 0.172197,0.1453 0.08073,0.0377 0.188355,0.07 0.295989,0.0323 0.107635,-0.0377 0.215263,-0.1453 0.30675,-0.32289 0.09149,-0.1776 0.166828,-0.42515 0.263697,-0.64579 0.09687,-0.220649 0.215261,-0.414382 0.317512,-0.608121 0.102252,-0.193739 0.188355,-0.387471 0.269079,-0.570445 0.08073,-0.182974 0.156067,-0.355183 0.247554,-0.54354 0.09149,-0.188356 0.199117,-0.392853 0.263696,-0.591974 0.06458,-0.199121 0.0861,-0.392853 0.134539,-0.554301 0.04843,-0.161448 0.123776,-0.290606 0.220645,-0.376711 0.09687,-0.08611 0.215265,-0.129158 0.360569,-0.161448 0.145304,-0.03229 0.317509,-0.05382 0.478958,-0.06458 0.161449,-0.01076 0.312131,-0.01076 0.462817,1e-6 0.150687,0.01076 0.301366,0.03229 0.425144,0.09687 0.123778,0.06458 0.220643,0.172208 0.279841,0.30137 0.0592,0.129161 0.08072,0.279839 0.08611,0.473579 0.0054,0.19374 -0.0054,0.430524 0.01076,0.710369 0.01615,0.279846 0.0592,0.602732 0.07534,0.936395 0.01614,0.333662 0.0054,0.678076 -0.01615,1.000975 -0.02153,0.32289 -0.05382,0.62426 -0.07534,0.85567 -0.02153,0.2314 -0.03229,0.39285 -1.2e-5,0.51123 0.03228,0.11839 0.107641,0.19375 0.258332,0.25295 0.150691,0.0592 0.376705,0.10225 0.548923,0.10224 0.172219,0 0.290595,-0.0431 0.414374,-0.19373 0.123779,-0.15069 0.252935,-0.409 0.355186,-0.64041 0.102251,-0.23141 0.17759,-0.4359 0.274461,-0.62426 0.09687,-0.18836 0.215259,-0.36056 0.355182,-0.538156 0.139923,-0.177595 0.301367,-0.360565 0.457434,-0.527395 0.156067,-0.166831 0.30675,-0.317514 0.457436,-0.452054 0.150686,-0.13454 0.301365,-0.252931 0.457433,-0.312129 0.156069,-0.0592 0.317512,-0.0592 0.532777,-0.03229 0.215266,0.02691 0.484341,0.08072 0.68346,0.16683 0.199119,0.0861 0.328275,0.204499 0.430525,0.371328 0.102251,0.16683 0.177593,0.382091 0.215264,0.645793 0.03767,0.263702 0.03767,0.575822 -0.01615,0.839522 -0.05382,0.2637 -0.161447,0.47896 -0.26908,0.70499 -0.107633,0.22603 -0.215261,0.46281 -0.290603,0.64578 -0.07534,0.18298 -0.118395,0.31214 -0.172211,0.44668 -0.05382,0.13454 -0.118394,0.27446 -0.182974,0.42514 -0.06458,0.15069 -0.129157,0.31213 -0.30137,0.65118 -0.172213,0.33904 -0.452048,0.85566 -0.640405,1.24852 -0.188358,0.39286 -0.285224,0.66193 -0.360567,0.91487 -0.07534,0.25294 -0.129157,0.48972 -0.156064,0.71575 -0.02691,0.22603 -0.02691,0.44128 0.01615,0.59736 0.04306,0.15608 0.129151,0.25293 0.236781,0.31751 0.107631,0.0646 0.236788,0.0969 0.392861,0.0915 0.156072,-0.005 0.339031,-0.0484 0.462811,-0.0753 0.12378,-0.0269 0.188347,-0.0377 0.344413,-0.0215 0.156066,0.0161 0.403625,0.0592 0.645796,0.10762 0.242171,0.0484 0.478958,0.10225 0.661924,0.16683 0.182965,0.0646 0.312139,0.13993 0.414394,0.20989 0.102256,0.07 0.177592,0.13454 0.236787,0.25831 0.0592,0.12378 0.102247,0.30675 0.118393,0.49511 0.01615,0.18835 0.0054,0.38209 -0.02691,0.52201 -0.03229,0.13992 -0.0861,0.22602 -0.150674,0.30674 -0.06457,0.0807 -0.139929,0.15607 -0.269089,0.2368 -0.129159,0.0807 -0.312133,0.16683 -0.548923,0.23679 -0.23679,0.07 -0.527392,0.12377 -0.914871,0.21526 -0.387479,0.0915 -0.871814,0.22064 -1.210859,0.30675 -0.339045,0.0861 -0.532767,0.12916 -0.704979,0.16683 -0.172213,0.0377 -0.322893,0.07 -0.484341,0.11304 -0.161448,0.0431 -0.333658,0.0969 -0.441289,0.16683 -0.107631,0.07 -0.150688,0.15607 -0.220649,0.40363 -0.06996,0.24755 -0.166827,0.65654 -0.764192,2.57241 -0.597366,1.91588 -1.695187,5.3385 -2.356471,7.46191 -0.661284,2.12341 -0.886004,2.94752 -1.028807,3.52702 -0.142803,0.57949 -0.203689,0.91436 -0.253158,1.21498 -0.04947,0.30063 -0.08752,0.567 -0.11416,0.82196 -0.02664,0.25496 -0.04186,0.49849 0.22072,0.67354 0.262575,0.17505 0.802923,0.2816 1.267179,0.34629 0.464255,0.0647 0.852398,0.0875 1.210102,0.11036 0.357704,0.0228 0.684963,0.0457 1.088333,0.0723 0.40337,0.0266 0.882838,0.0571 1.522142,0.0913 0.639304,0.0342 1.438414,0.0723 2.123384,0.12177 0.68497,0.0495 1.25576,0.11035 1.860816,0.14841 0.605057,0.0381 1.244342,0.0533 2.724647,0.10277 1.480304,0.0495 3.801524,0.13319 5.112419,0.076 1.310894,-0.0572 1.611412,-0.25541 1.91774,-0.39755 0.306329,-0.14214 0.618458,-0.22825 1.048988,-0.28207 0.43053,-0.0538 0.979442,-0.0754 1.582186,-0.1184 0.602744,-0.0431 1.259282,-0.10764 2.023475,-0.13993 0.764193,-0.0323 1.63599,-0.0323 3.880145,0.005 2.244154,0.0377 5.860504,0.11302 7.873219,0.15607 2.012715,0.0431 2.421703,0.0538 2.949107,0.0915 0.527403,0.0377 1.173178,0.10224 1.775922,0.18297 0.602744,0.0807 1.162412,0.17759 1.759775,0.25832 0.597363,0.0807 1.232374,0.1453 1.964276,0.27984 0.731901,0.13454 1.560649,0.33904 2.125723,0.48973 0.565073,0.15068 0.866426,0.24754 1.477245,0.45474 0.610819,0.20719 1.531052,0.5247 2.233352,0.79109 0.702301,0.26639 1.186632,0.48165 1.601016,0.68615 0.414385,0.2045 0.758799,0.39823 1.127441,0.62157 0.368643,0.22334 0.761492,0.47627 1.070527,0.67121 0.309036,0.19495 0.92055,0.56682 1.399922,1.17217 0.479373,0.60535 1.212873,1.67904 1.739457,2.42139 0.526583,0.74234 0.846228,1.15331 1.23438,1.7774 0.388153,0.62409 0.844786,1.46125 1.248156,2.45826 0.403369,0.99701 0.753457,2.15382 0.951335,3.37154 0.197878,1.21773 0.243541,2.4963 0.296816,3.71403 0.05328,1.21772 0.114159,2.37452 0.182656,3.54658 0.0685,1.17206 0.144602,2.3593 0.205489,3.55419 0.06089,1.1949 0.10655,2.39736 0.175047,4.78716 0.0685,2.3898 0.159823,5.96675 0.152211,8.22714 -0.0076,2.26039 -0.114159,3.2041 -0.182656,4.28483 -0.0685,1.08073 -0.09894,2.29842 -0.171536,3.68403 -0.0726,1.3856 -0.187344,2.93904 -0.255482,4.03329 -0.06814,1.09425 -0.08967,1.72927 -0.186535,2.23514 -0.09687,0.50587 -0.269077,0.88257 -0.548923,1.33463 -0.279847,0.45206 -0.667309,0.97944 -1.183947,1.38306 -0.516638,0.40362 -1.162417,0.68346 -1.845884,0.83415 -0.683467,0.15068 -1.404585,0.17222 -1.985799,0.15608 -0.581214,-0.0161 -1.022496,-0.07 -1.216232,0.0269 -0.193736,0.0969 -0.139921,0.34442 -0.161449,1.06018 -0.02153,0.71576 -0.118394,1.89969 -0.13992,2.90605 -0.02153,1.00636 0.03229,1.83511 0.0592,2.86301 0.02691,1.02789 0.02691,2.25486 0.04305,3.72943 0.01615,1.47457 0.04843,3.19664 0.08504,4.78318 0.0366,1.58654 0.07751,3.03745 0.09036,4.32612 0.01285,1.28868 -0.0024,2.41504 0.01285,3.374 0.01522,0.95896 0.06089,1.75045 0.121773,2.29082 0.06089,0.54036 0.136991,0.82956 0.357706,1.2101 0.220715,0.38054 0.586021,0.85239 0.88284,1.23293 0.29682,0.38054 0.525134,0.66974 0.829565,0.98178 0.304431,0.31204 0.684961,0.64691 0.974164,0.86001 0.289204,0.21309 0.487091,0.30443 0.631694,0.50231 0.144603,0.19788 0.235929,0.5023 0.243539,0.7839 0.0076,0.2816 -0.0685,0.54036 -0.175047,0.76107 -0.106551,0.22071 -0.243539,0.40336 -3.333545,0.47186 -3.090006,0.0685 -9.132782,0.0228 -12.199896,-0.0913 -3.067114,-0.11417 -3.158439,-0.29682 -3.257378,-0.47187 -0.09894,-0.17504 -0.20549,-0.34248 -0.289208,-0.60124 -0.08372,-0.25877 -0.144601,-0.60885 -0.167434,-1.134 -0.02283,-0.52515 -0.0076,-1.22532 -0.0076,-2.02445 0,-0.79913 -0.01522,-1.69718 -0.01522,-2.84641 0,-1.14923 0.01522,-2.54957 -0.0076,-4.04889 -0.02283,-1.49932 -0.08372,-3.09754 -0.152215,-4.56642 -0.0685,-1.46888 -0.144602,-2.80833 -0.17124,-4.5474 -0.02664,-1.73907 -0.0038,-3.87763 -0.01142,-5.4873 -0.0076,-1.60968 -0.04566,-2.69038 -0.216908,-6.84209 -0.171243,-4.15171 -0.475665,-11.37412 -0.665934,-17.10122 -0.190268,-5.72709 -0.266374,-9.95855 -0.310966,-12.08957 -0.04459,-2.13103 -0.05763,-2.16144 -0.397833,-2.19014 -0.340201,-0.0287 -1.007504,-0.0556 -2.447027,-0.0708 -1.439523,-0.0152 -3.651164,-0.0187 -4.768415,-0.005 -1.117251,0.0135 -1.140115,0.0439 -1.189579,0.29887 -0.04946,0.25495 -0.12557,0.73442 -0.190261,1.48027 -0.06469,0.74586 -0.117965,1.75807 -0.159824,2.60286 -0.04186,0.84479 -0.0723,1.52213 -0.110356,2.21852 -0.03805,0.69639 -0.08372,1.41178 -0.266378,3.8815 -0.18266,2.46971 -0.502303,6.69356 -0.723014,9.63512 -0.220712,2.94155 -0.34248,4.60065 -0.471864,6.92955 -0.129383,2.3289 -0.266374,5.32746 -0.350092,7.82379 -0.08372,2.49633 -0.114162,4.4903 -0.197881,7.15408 -0.08372,2.66377 -0.220711,5.99719 -0.281597,8.37174 -0.06089,2.37456 -0.04567,3.79012 -0.04567,5.17528 0,1.38516 -0.01522,2.73984 -0.06849,3.83579 -0.05327,1.09595 -0.144601,1.93311 -0.312037,2.60286 -0.167437,0.66974 -0.410976,1.17204 -0.578413,1.52214 -0.167437,0.35009 -0.258762,0.54796 -3.348768,0.6469 -3.090007,0.0989 -9.178445,0.0989 -12.275997,0.0837 -3.097552,-0.0152 -3.204118,-0.0456 -3.325886,-0.19025 -0.121769,-0.1446 -0.258759,-0.40336 -0.304423,-0.63168 -0.04566,-0.22832 3e-6,-0.4262 0.152218,-0.61646 0.152215,-0.19027 0.410978,-0.37293 0.692575,-0.59364 0.281597,-0.22071 0.586018,-0.47947 0.974168,-0.82196 0.38815,-0.34248 0.860005,-0.76867 1.240543,-1.20249 0.380538,-0.43381 0.669742,-0.87523 0.882841,-1.2101 0.213099,-0.33487 0.350091,-0.56319 0.471863,-3.53903 0.121772,-2.97584 0.228321,-8.69897 0.311198,-12.12595 0.08288,-3.42698 0.142079,-4.55765 0.33996,-8.42396 0.197882,-3.8663 0.534428,-10.46795 0.763591,-15.01702 0.229163,-4.54907 0.350933,-7.04533 0.51076,-9.45794 0.159827,-2.41262 0.357702,-4.74145 0.509917,-6.88768 0.152214,-2.14624 0.258762,-4.10976 0.312036,-5.28942 0.05328,-1.17967 0.05328,-1.57542 0.114162,-2.15384 0.06089,-0.57842 0.182655,-1.33947 0.258763,-1.81134 0.07611,-0.47186 0.106551,-0.65452 0.07611,-0.9894 -0.03044,-0.33487 -0.121769,-0.82194 -0.167434,-1.65913 -0.04566,-0.83719 -0.04566,-2.02444 -0.09133,-2.96817 -0.04566,-0.94373 -0.136992,-1.6439 -0.228317,-1.97878 -0.09132,-0.33488 -0.18267,-0.30444 -1.720057,-0.35011 -1.537387,-0.0457 -4.520722,-0.16745 -6.606065,-0.24355 -2.085344,-0.0761 -3.272592,-0.10654 -4.383764,-0.22831 -1.111172,-0.12176 -2.146205,-0.33486 -3.150829,-0.59363 -1.004623,-0.25877 -1.978773,-0.56319 -2.785511,-0.88284 -0.806739,-0.31965 -1.446028,-0.65452 -2.115409,-1.10888 -0.669381,-0.45435 -1.368818,-1.02817 -1.847703,-1.4873 -0.478886,-0.45913 -0.737198,-0.80355 -0.963225,-1.19102 -0.226027,-0.38748 -0.41976,-0.818 -0.581209,-1.27006 -0.161448,-0.45205 -0.290603,-0.92562 -0.376709,-1.47455 -0.08611,-0.54893 -0.129158,-1.17318 -0.150685,-1.82974 -0.02153,-0.65656 -0.02153,-1.34538 0.04305,-2.07729 0.06458,-0.7319 0.193735,-1.50683 0.322894,-2.23873 0.129159,-0.7319 0.258313,-1.42073 0.430525,-2.09882 0.172212,-0.67808 0.387474,-1.34539 0.745132,-2.77503 0.357658,-1.42964 0.857689,-3.62151 1.237094,-5.07518 0.379405,-1.45367 0.638163,-2.16906 0.836042,-2.73226 0.19788,-0.56319 0.334871,-0.97416 0.487088,-1.43081 0.152217,-0.45665 0.319647,-0.95894 0.479473,-1.36231 0.159826,-0.40337 0.31204,-0.7078 0.456644,-1.01984 0.144605,-0.31204 0.281593,-0.63168 0.357699,-1.02744 0.07611,-0.39577 0.09133,-0.86762 0.13699,-1.33188 0.04566,-0.46425 0.121769,-0.92089 0.266374,-1.41559 0.144605,-0.4947 0.357701,-1.02744 0.578413,-1.46125 0.220711,-0.43381 0.44903,-0.76868 0.677354,-1.21771 0.228323,-0.44904 0.45664,-1.01222 0.608855,-1.47647 0.152215,-0.46426 0.22832,-0.829571 0.264026,-1.200059 0.03571,-0.370488 0.03101,-0.746135 0.02867,-0.933963 -0.0023,-0.187828 -0.0023,-0.187986 0.132198,-0.23642 z"
       id="path5"
       transform="matrix(0.16472668,0,0,0.16472668,15.125194,77.906286)" /><path
       style="opacity:1;fill:#2274a5;fill-opacity:0.996078;stroke-width:0.973931;stroke-miterlimit:3.9"
       d="m 65.699376,115.53425 c 0.03425,-0.17885 0.102745,-0.53656 0.197879,-0.81435 0.09513,-0.27779 0.216904,-0.47567 0.369119,-0.67735 0.152216,-0.20169 0.334868,-0.40717 0.521332,-0.60886 0.186464,-0.20168 0.37673,-0.39956 0.574609,-0.55558 0.19788,-0.15602 0.403367,-0.27018 0.60124,-0.37292 0.197874,-0.10274 0.388149,-0.19407 0.574618,-0.25495 0.18647,-0.0609 0.369119,-0.0913 0.566996,-0.10653 0.197877,-0.0152 0.410972,-0.0152 0.597433,0 0.186461,0.0152 0.346294,0.0456 0.525144,0.0723 0.178849,0.0266 0.376731,0.0495 0.620274,0.14841 0.243543,0.0989 0.532742,0.27398 0.749648,0.42239 0.216906,0.14841 0.361506,0.27018 0.494697,0.4224 0.13319,0.15222 0.254957,0.33487 0.388145,0.50231 0.133188,0.16743 0.277788,0.31964 0.422395,0.52133 0.144607,0.20169 0.289203,0.45283 0.426198,0.72682 0.136995,0.27399 0.266374,0.5708 0.357704,0.8486 0.09133,0.27779 0.144604,0.53655 0.178851,0.76867 0.03425,0.23213 0.04947,0.43762 0.04947,0.6393 0,0.20169 -0.01522,0.39956 -0.02283,0.55939 -0.0076,0.15983 -0.0076,0.28159 -0.01903,0.41858 -0.01142,0.137 -0.03425,0.28921 -0.05328,0.44904 -0.01903,0.15983 -0.03425,0.32726 -0.05708,0.51372 -0.02283,0.18647 -0.05327,0.39195 -0.09133,0.60125 -0.03805,0.2093 -0.08372,0.42239 -0.125577,0.61266 -0.04186,0.19027 -0.07991,0.3577 -0.11416,0.4947 -0.03425,0.13699 -0.06469,0.24354 -0.125577,0.37292 -0.06088,0.12938 -0.152211,0.28159 -0.262568,0.4262 -0.110357,0.1446 -0.239735,0.28159 -0.361502,0.39575 -0.121767,0.11416 -0.235939,0.20549 -0.334877,0.28921 -0.09894,0.0837 -0.182658,0.15982 -0.304432,0.30443 -0.121775,0.14461 -0.281594,0.3577 -0.433809,0.52133 -0.152215,0.16363 -0.296816,0.27779 -0.468058,0.38815 -0.171242,0.11035 -0.369117,0.2169 -0.536559,0.29301 -0.167443,0.0761 -0.304414,0.12177 -0.464243,0.15222 -0.159829,0.0305 -0.342481,0.0457 -0.528948,0.0533 -0.186466,0.008 -0.376728,0.008 -0.624082,-0.008 -0.247355,-0.0152 -0.551773,-0.0456 -0.742061,-0.0647 -0.190288,-0.019 -0.266353,-0.0266 -0.346273,-0.0533 -0.07992,-0.0266 -0.16361,-0.0723 -0.258751,-0.15981 -0.09514,-0.0875 -0.201689,-0.21691 -0.3501,-0.3501 -0.14841,-0.13319 -0.338674,-0.27018 -0.494695,-0.42239 -0.156021,-0.15222 -0.27779,-0.31965 -0.38434,-0.48328 -0.10655,-0.16363 -0.197874,-0.32345 -0.273983,-0.46806 -0.07611,-0.1446 -0.136993,-0.27398 -0.213102,-0.43761 -0.07611,-0.16364 -0.167433,-0.36151 -0.232124,-0.54417 -0.06469,-0.18266 -0.102743,-0.35009 -0.125576,-0.46426 -0.02283,-0.11417 -0.03044,-0.17504 -0.05708,-0.25875 -0.02664,-0.0837 -0.0723,-0.19027 -0.13699,-0.25496 -0.06469,-0.0647 -0.148419,-0.0875 -0.258769,-0.10656 -0.11035,-0.019 -0.247337,-0.0343 -0.369121,-0.0571 -0.121785,-0.0228 -0.228324,-0.0533 -0.308245,-0.0875 -0.07992,-0.0343 -0.133167,-0.0723 -0.247325,-0.13698 -0.114157,-0.0647 -0.289213,-0.15602 -0.433818,-0.23593 -0.144605,-0.0799 -0.258761,-0.14841 -0.376729,-0.23974 -0.117967,-0.0913 -0.239735,-0.20549 -0.304419,-0.27017 -0.06468,-0.0647 -0.07228,-0.0799 -0.102737,-0.2017 -0.03046,-0.12181 -0.08373,-0.35012 -0.09895,-0.52897 -0.01522,-0.17886 0.0076,-0.30824 0.03806,-0.44143 0.03044,-0.13319 0.06849,-0.27017 0.09893,-0.38432 0.03044,-0.11415 0.05328,-0.20551 0.08371,-0.29682 0.03044,-0.0913 0.0685,-0.18267 0.136992,-0.27399 0.06849,-0.0913 0.167444,-0.18267 0.262579,-0.25877 0.09514,-0.0761 0.186456,-0.13699 0.262572,-0.19408 0.07612,-0.0571 0.136988,-0.11035 0.235929,-0.16743 0.09894,-0.0571 0.23593,-0.11796 0.350086,-0.15982 0.114156,-0.0419 0.205497,-0.0647 0.323458,-0.0913 0.117961,-0.0266 0.262575,-0.0571 0.388164,-0.0761 0.125588,-0.019 0.232108,-0.0266 0.304402,-0.038 0.07229,-0.0114 0.110341,-0.0267 0.148403,-0.0343 0.03806,-0.008 0.07611,-0.008 0.102765,-0.0229 0.02665,-0.0152 0.04186,-0.0456 0.04946,-0.0609 0.0076,-0.0152 0.0076,-0.0153 0.04185,-0.19416 z"
       id="path6"
       transform="matrix(0.16472668,0,0,0.16472668,15.125194,77.906286)" /><path
       style="opacity:1;fill:none;fill-opacity:0.996078;stroke:#003049;stroke-width:0.973931;stroke-miterlimit:3.9;stroke-opacity:1"
       d="m 71.263283,115.18755 c 0.07534,0.22603 0.150683,0.45205 0.228716,0.6727 0.07803,0.22064 0.158756,0.4359 0.209883,0.66731 0.05113,0.23141 0.07265,0.47896 0.07534,0.75611 0.0027,0.27716 -0.01345,0.58391 -0.0296,0.87989 -0.01614,0.29599 -0.03229,0.58121 -0.0565,0.84222 -0.02422,0.26101 -0.05651,0.4978 -0.07803,0.65925 -0.02153,0.16144 -0.03229,0.24754 -0.04298,0.28795 -0.01069,0.0404 -0.02164,0.035 -0.134632,0.0484 -0.112997,0.0135 -0.328254,0.0458 -0.524677,0.0646 -0.196424,0.0188 -0.374026,0.0242 -0.597364,0.0269 -0.223337,0.003 -0.49241,0.003 -0.664619,0.003 -0.17221,0 -0.247556,0 -0.322896,0"
       id="path7"
       transform="matrix(0.16472668,0,0,0.16472668,15.125194,77.906286)" /><path
       style="opacity:1;fill:none;fill-opacity:0.996078;stroke:#003049;stroke-width:0.973931;stroke-miterlimit:3.9;stroke-opacity:1"
       d="m 83.775452,141.74564 c 0.215264,0.50587 0.430526,1.01173 0.57583,1.59833 0.145303,0.5866 0.220644,1.2539 0.258315,1.88356 0.03767,0.62965 0.03767,1.22161 0.06458,1.99657 0.02691,0.77495 0.08072,1.73285 0.107631,2.62621 0.02691,0.89335 0.02691,1.72209 0.04843,2.49704 0.02153,0.77496 0.06458,1.49608 0.0861,2.27642 0.02153,0.78033 0.02153,1.61984 0.01076,2.52396 -0.01076,0.90411 -0.03229,1.87277 -0.01614,2.74998 0.01614,0.8772 0.06996,1.6629 0.09149,2.40019 0.02152,0.73728 0.01076,1.4261 -10e-7,2.0719 -0.01076,0.64579 -0.02153,1.24852 -0.02153,1.96428 10e-7,0.71576 0.01076,1.5445 0.02153,2.30869 0.01076,0.76419 0.02153,1.46379 0.01614,2.0773 -0.0054,0.6135 -0.02691,1.14088 -0.03767,1.6898 -0.01076,0.54893 -0.01076,1.11937 -0.01076,1.59834 0,0.47896 0,0.86642 -0.0054,1.12474 -0.0054,0.25832 -0.01614,0.38747 10e-7,0.59736 0.01615,0.20988 0.0592,0.50048 0.02153,0.79647 -0.03767,0.29599 -0.156064,0.59735 -0.317514,0.86105 -0.161449,0.2637 -0.365945,0.48972 -0.565065,0.74804 -0.199121,0.25832 -0.392853,0.54892 -0.51663,0.87182 -0.123777,0.3229 -0.177592,0.67808 -0.150683,1.07094 0.02691,0.39285 0.134538,0.82337 0.247553,1.11936 0.113014,0.29599 0.231405,0.45743 0.344418,0.58121 0.113012,0.12378 0.220645,0.20988 0.382093,0.24217 0.161448,0.0323 0.376714,0.0108 0.527397,-0.0969 0.150683,-0.10764 0.236789,-0.30138 0.317513,-0.5005 0.08073,-0.19912 0.156064,-0.40361 0.199117,-0.60273 0.04305,-0.19912 0.05382,-0.39286 0.15607,-0.59736 0.102252,-0.2045 0.295986,-0.41976 0.468188,-0.56506 0.172202,-0.1453 0.322904,-0.22065 0.306757,-0.2045 -0.01615,0.0161 -0.199116,0.12378 -0.371327,0.26908 -0.172212,0.1453 -0.333656,0.32827 -0.425146,0.52201 -0.09149,0.19374 -0.113015,0.39824 -0.06996,0.50587 0.04306,0.10764 0.150678,0.1184 0.322894,0.12917 0.172216,0.0108 0.408996,0.0215 0.608118,0.0215 0.199122,0 0.360561,-0.0108 0.312127,-0.005 -0.04843,0.005 -0.306742,0.0269 -0.543535,0.0269 -0.236793,0 -0.452056,-0.0215 -0.581213,0.0215 -0.129157,0.043 -0.172209,0.15068 -0.242171,0.28522 -0.06996,0.13454 -0.166827,0.29598 -0.220645,0.42516 -0.05382,0.12917 -0.06458,0.22601 -0.156064,0.28521 -0.09149,0.0592 -0.26369,0.0807 -0.371328,0.0915 -0.107639,0.0108 -0.150689,0.0108 -0.150687,0.0915 3e-6,0.0807 0.04305,0.24217 0.129161,0.51126 0.08611,0.26908 0.215261,0.64578 0.446672,0.93639 0.231411,0.2906 0.565063,0.4951 0.796463,0.63502 0.231399,0.13991 0.36057,0.21526 0.495105,0.27446 0.134535,0.0592 0.274469,0.10225 0.414389,0.1453"
       id="path8"
       transform="matrix(0.16472668,0,0,0.16472668,15.125194,77.906286)" /><path
       style="opacity:1;fill:none;fill-opacity:0.996078;stroke:#003049;stroke-width:0.973931;stroke-miterlimit:3.9;stroke-opacity:1"
       d="m 90.118311,184.92862 c 0.110368,-0.0419 0.220703,-0.0837 0.369109,-0.15411 0.148405,-0.0704 0.334883,-0.16935 0.485194,-0.31014 0.15031,-0.1408 0.264472,-0.32346 0.378629,-0.50611"
       id="path9"
       transform="matrix(0.16472668,0,0,0.16472668,15.125194,77.906286)" /><path
       style="opacity:1;fill:none;fill-opacity:0.996078;stroke:#003049;stroke-width:0.973931;stroke-miterlimit:3.9;stroke-opacity:1"
       d="m 92.744004,185.13411 c 0.144586,-0.0647 0.289201,-0.12938 0.443321,-0.27589 0.15412,-0.14651 0.317745,-0.37482 0.481377,-0.60314"
       id="path10"
       transform="matrix(0.16472668,0,0,0.16472668,15.149641,77.840467)" /></g></svg>
