<?xml version="1.0" encoding="UTF-8" standalone="no"?>
<!-- Created with Inkscape (http://www.inkscape.org/) -->

<svg
   width="702.11407"
   height="352.67316"
   viewBox="0 0 702.11407 352.67316"
   version="1.1"
   id="svg1"
   sodipodi:docname="Circuit Complexity.svg"
   inkscape:version="1.3.2 (091e20e, 2023-11-25, custom)"
   xmlns:inkscape="http://www.inkscape.org/namespaces/inkscape"
   xmlns:sodipodi="http://sodipodi.sourceforge.net/DTD/sodipodi-0.dtd"
   xmlns="http://www.w3.org/2000/svg"
   xmlns:svg="http://www.w3.org/2000/svg">
  <sodipodi:namedview
     id="namedview1"
     pagecolor="#ffffff"
     bordercolor="#999999"
     borderopacity="1"
     inkscape:showpageshadow="2"
     inkscape:pageopacity="0"
     inkscape:pagecheckerboard="0"
     inkscape:deskcolor="#d1d1d1"
     inkscape:zoom="0.92875524"
     inkscape:cx="302.55549"
     inkscape:cy="339.16363"
     inkscape:window-width="1920"
     inkscape:window-height="974"
     inkscape:window-x="-11"
     inkscape:window-y="-11"
     inkscape:window-maximized="1"
     inkscape:current-layer="svg1">
    <inkscape:page
       x="0"
       y="0"
       width="702.11407"
       height="352.67316"
       id="page1"
       margin="0 0 15.226978"
       bleed="0" />
  </sodipodi:namedview>
  <defs
     id="defs1">
    <marker
       style="overflow:visible"
       id="marker62"
       refX="0"
       refY="0"
       orient="auto-start-reverse"
       markerWidth="1"
       markerHeight="1"
       viewBox="0 0 1 1"
       preserveAspectRatio="xMidYMid">
      <path
         transform="scale(0.5)"
         style="fill:context-stroke;fill-rule:evenodd;stroke:context-stroke;stroke-width:1pt"
         d="m 6,0 c -3,1 -7,3 -9,5 0,0 0,-4 2,-5 -2,-1 -2,-5 -2,-5 2,2 6,4 9,5 z"
         id="path62" />
    </marker>
    <marker
       style="overflow:visible"
       id="ArrowTriangleStylized"
       refX="0"
       refY="0"
       orient="auto-start-reverse"
       markerWidth="1"
       markerHeight="1"
       viewBox="0 0 1 1"
       preserveAspectRatio="xMidYMid">
      <path
         transform="scale(0.5)"
         style="fill:context-stroke;fill-rule:evenodd;stroke:context-stroke;stroke-width:1pt"
         d="m 6,0 c -3,1 -7,3 -9,5 0,0 0,-4 2,-5 -2,-1 -2,-5 -2,-5 2,2 6,4 9,5 z"
         id="path4" />
    </marker>
  </defs>
  <g
     id="g35"
     transform="translate(85.401464,-132.74316)">
    <path
       style="fill:#adb5bd;stroke:#ced4da;stroke-width:3.01776;stroke-miterlimit:3.9;stroke-opacity:1"
       d="M 69.511322,212.11523 H 447.46409"
       id="path1" />
    <path
       style="fill:#adb5bd;stroke:#ced4da;stroke-width:3.01336;stroke-miterlimit:3.9;stroke-opacity:1"
       d="M 69.511322,339.76778 H 446.58743"
       id="path1-6" />
    <path
       style="fill:#adb5bd;stroke:#ced4da;stroke-width:3.01336;stroke-miterlimit:3.9;stroke-opacity:1"
       d="M 69.511322,275.97935 H 446.58743"
       id="path1-7" />
    <path
       d="m 38.816235,34.025455 v 11.8004 a 1.0441521,1.0441521 45 0 0 1.044152,1.044152 h 11.823749 a 0.99843624,0.99843624 135 0 0 0.998436,-0.998436 V 34.004187 a 1,1 45 0 0 -1,-1 H 39.837503 a 1.0212683,1.0212683 135 0 0 -1.021268,1.021268 z"
       style="fill:#2274a5;fill-opacity:1;stroke-width:0.929022;stroke-miterlimit:3.9"
       id="path2-7"
       transform="matrix(3.4997443,0,0,3.4997443,-23.444719,72.363541)" />
    <path
       d="m 38.816235,34.025455 v 11.8004 a 1.0441521,1.0441521 45 0 0 1.044152,1.044152 h 11.823749 a 0.99843624,0.99843624 135 0 0 0.998436,-0.998436 V 34.004187 a 1,1 45 0 0 -1,-1 H 39.837503 a 1.0212683,1.0212683 135 0 0 -1.021268,1.021268 z"
       style="fill:#2274a5;fill-opacity:1;stroke-width:0.929022;stroke-miterlimit:3.9"
       id="path2-8"
       transform="matrix(3.4997443,0,0,3.4997443,81.918682,200.34633)" />
    <path
       style="fill:#adb5bd;stroke:#ced4da;stroke-width:3.01336;stroke-miterlimit:3.9;stroke-opacity:1"
       d="M 70.387992,404.91583 H 447.46409"
       id="path1-7-1" />
    <path
       d="m 38.816235,34.025455 v 11.8004 a 1.0441521,1.0441521 45 0 0 1.044152,1.044152 h 11.823749 a 0.99843624,0.99843624 135 0 0 0.998436,-0.998436 V 34.004187 a 1,1 45 0 0 -1,-1 H 39.837503 a 1.0212683,1.0212683 135 0 0 -1.021268,1.021268 z"
       style="fill:#2274a5;fill-opacity:1;stroke-width:0.929022;stroke-miterlimit:3.9"
       id="path2-8-4"
       transform="matrix(3.4997443,0,0,8.1562965,-21.523396,-18.74865)" />
    <path
       d="m 38.816235,34.025455 v 11.8004 a 1.0441521,1.0441521 45 0 0 1.044152,1.044152 h 11.823749 a 0.99843624,0.99843624 135 0 0 0.998436,-0.998436 V 34.004187 a 1,1 45 0 0 -1,-1 H 39.837503 a 1.0212683,1.0212683 135 0 0 -1.021268,1.021268 z"
       style="fill:#2274a5;fill-opacity:1;stroke-width:0.929022;stroke-miterlimit:3.9"
       id="path2-5"
       transform="matrix(3.4997443,0,0,3.4997443,-23.017481,264.77641)" />
    <path
       d="m 38.816235,34.025455 v 11.8004 a 1.0441521,1.0441521 45 0 0 1.044152,1.044152 h 11.823749 a 0.99843624,0.99843624 135 0 0 0.998436,-0.998436 V 34.004187 a 1,1 45 0 0 -1,-1 H 39.837503 a 1.0212683,1.0212683 135 0 0 -1.021268,1.021268 z"
       style="fill:#2274a5;fill-opacity:1;stroke-width:0.929022;stroke-miterlimit:3.9"
       id="path2-8-3"
       transform="matrix(3.4997443,0,0,3.4997443,82.593292,265.42195)" />
    <path
       d="m 38.816235,34.025455 v 11.8004 a 1.0441521,1.0441521 45 0 0 1.044152,1.044152 h 11.823749 a 0.99843624,0.99843624 135 0 0 0.998436,-0.998436 V 34.004187 a 1,1 45 0 0 -1,-1 H 39.837503 a 1.0212683,1.0212683 135 0 0 -1.021268,1.021268 z"
       style="fill:#2274a5;fill-opacity:1;stroke-width:0.929022;stroke-miterlimit:3.9"
       id="path2-8-4-8"
       transform="matrix(3.4997443,0,0,8.1562965,82.352192,-81.482923)" />
    <path
       d="m 38.816235,34.025455 v 11.8004 a 1.0441521,1.0441521 45 0 0 1.044152,1.044152 h 11.823749 a 0.99843624,0.99843624 135 0 0 0.998436,-0.998436 V 34.004187 a 1,1 45 0 0 -1,-1 H 39.837503 a 1.0212683,1.0212683 135 0 0 -1.021268,1.021268 z"
       style="fill:#2274a5;fill-opacity:1;stroke-width:0.929022;stroke-miterlimit:3.9"
       id="path2-8-43"
       transform="matrix(3.4997443,0,0,3.4997443,160.1737,136.55133)" />
    <path
       d="m 38.816235,34.025455 v 11.8004 a 1.0441521,1.0441521 45 0 0 1.044152,1.044152 h 11.823749 a 0.99843624,0.99843624 135 0 0 0.998436,-0.998436 V 34.004187 a 1,1 45 0 0 -1,-1 H 39.837503 a 1.0212683,1.0212683 135 0 0 -1.021268,1.021268 z"
       style="fill:#2274a5;fill-opacity:1;stroke-width:0.929022;stroke-miterlimit:3.9"
       id="path2-8-6"
       transform="matrix(3.4997443,0,0,3.4997443,160.09247,71.348281)" />
    <path
       d="m 38.816235,34.025455 v 11.8004 a 1.0441521,1.0441521 45 0 0 1.044152,1.044152 h 11.823749 a 0.99843624,0.99843624 135 0 0 0.998436,-0.998436 V 34.004187 a 1,1 45 0 0 -1,-1 H 39.837503 a 1.0212683,1.0212683 135 0 0 -1.021268,1.021268 z"
       style="fill:#2274a5;fill-opacity:1;stroke-width:0.929022;stroke-miterlimit:3.9"
       id="path2-8-4-8-7"
       transform="matrix(3.4997443,0,0,8.1562965,162.04664,49.231241)" />
    <path
       d="m 38.816235,34.025455 v 11.8004 a 1.0441521,1.0441521 45 0 0 1.044152,1.044152 h 11.823749 a 0.99843624,0.99843624 135 0 0 0.998436,-0.998436 V 34.004187 a 1,1 45 0 0 -1,-1 H 39.837503 a 1.0212683,1.0212683 135 0 0 -1.021268,1.021268 z"
       style="fill:#2274a5;fill-opacity:1;stroke-width:0.929022;stroke-miterlimit:3.9"
       id="path2-8-4-8-7-2"
       transform="matrix(3.4997443,0,0,8.1562965,240.61282,-84.103908)" />
    <circle
       style="fill:#161a1d;fill-opacity:0.996078;stroke:none;stroke-width:2.04094;stroke-miterlimit:3.9;stroke-dasharray:none;stroke-opacity:1"
       id="path1877"
       cx="68.505043"
       cy="211.87445"
       r="3.7795277" />
    <circle
       style="fill:#161a1d;fill-opacity:0.996078;stroke:none;stroke-width:2.04094;stroke-miterlimit:3.9;stroke-dasharray:none;stroke-opacity:1"
       id="path1877-7"
       cx="68.490509"
       cy="275.85107"
       r="3.7795277" />
    <circle
       style="fill:#161a1d;fill-opacity:0.996078;stroke:none;stroke-width:2.04094;stroke-miterlimit:3.9;stroke-dasharray:none;stroke-opacity:1"
       id="path1877-0"
       cx="68.537857"
       cy="339.70175"
       r="3.7795277" />
    <circle
       style="fill:#161a1d;fill-opacity:0.996078;stroke:none;stroke-width:2.04094;stroke-miterlimit:3.9;stroke-dasharray:none;stroke-opacity:1"
       id="path1877-2"
       cx="69.025986"
       cy="404.53592"
       r="3.7795277" />
    <circle
       style="fill:#161a1d;fill-opacity:0.996078;stroke:none;stroke-width:2.04094;stroke-miterlimit:3.9;stroke-dasharray:none;stroke-opacity:1"
       id="path1877-6"
       cx="447.25574"
       cy="212.11165"
       r="3.7795277" />
    <circle
       style="fill:#161a1d;fill-opacity:0.996078;stroke:none;stroke-width:2.04094;stroke-miterlimit:3.9;stroke-dasharray:none;stroke-opacity:1"
       id="path1877-05"
       cx="446.94049"
       cy="275.88196"
       r="3.7795277" />
    <circle
       style="fill:#161a1d;fill-opacity:0.996078;stroke:none;stroke-width:2.04094;stroke-miterlimit:3.9;stroke-dasharray:none;stroke-opacity:1"
       id="path1877-3"
       cx="448.25562"
       cy="339.51013"
       r="3.7795277" />
    <circle
       style="fill:#161a1d;fill-opacity:0.996078;stroke:none;stroke-width:2.04094;stroke-miterlimit:3.9;stroke-dasharray:none;stroke-opacity:1"
       id="path1877-73"
       cx="448.17743"
       cy="405.00757"
       r="3.7795277" />
  </g>
  <path
     style="fill:none;stroke:#632b30;stroke-width:3.968;stroke-miterlimit:3.9;stroke-dasharray:none;stroke-opacity:1"
     d="m 108.26273,253.72118 c 21.77264,-43.1824 43.54527,-86.3648 67.94904,-109.22609 24.40377,-22.8613 51.43759,-25.40139 76.2042,-24.31271 24.7666,1.08868 47.26454,5.80599 71.66831,11.06776 24.40376,5.26178 50.71184,11.0677 39.28071,29.84692 -11.43113,18.77922 -60.60002,50.53035 -56.51707,68.58354 4.08294,18.05319 61.41641,22.40763 103.05684,15.6035 41.64043,-6.80412 67.58564,-24.76619 89.35845,-39.37212 21.77282,-14.60592 39.37202,-25.85489 56.97157,-37.10409"
     id="path36" />
  <g
     transform="translate(92.477794,257.53164)"
     id="g48">
    <g
       fill="#000000"
       fill-opacity="1"
       id="g2"
       transform="matrix(1.33333,0,0,1.33333,-3.34483,-2.78133)">
      <g
         id="use1"
         transform="translate(1.993,19.836)">
        <path
           d="m 7.15625,-15.359375 c 0,-1.21875 0.078125,-1.484375 1.59375,-1.484375 0.390625,0 0.8125,0 0.8125,-0.4375 C 9.5625,-17.75 9.171875,-17.75 8.703125,-17.75 H 1.40625 c -0.46875,0 -0.890625,0 -0.890625,0.46875 0,0.4375 0.4375,0.4375 0.859375,0.4375 1.46875,0 1.546875,0.265625 1.546875,1.484375 v 12.96875 c 0,1.25 -0.078125,1.484375 -1.59375,1.484375 -0.34375,0 -0.8125,0 -0.8125,0.4375 C 0.515625,0 0.9375,0 1.40625,0 H 8.703125 C 9.171875,0 9.5625,0 9.5625,-0.46875 c 0,-0.4375 -0.4375,-0.4375 -0.734375,-0.4375 -1.578125,0 -1.671875,-0.203125 -1.671875,-1.484375 z m -3.328125,-0.0625 c 0,-0.375 0,-0.953125 -0.234375,-1.421875 H 6.484375 C 6.25,-16.375 6.25,-15.796875 6.25,-15.421875 v 13.09375 c 0,0.390625 0,0.953125 0.234375,1.421875 H 3.59375 C 3.828125,-1.375 3.828125,-1.9375 3.828125,-2.328125 Z m 0,0"
           id="path48" />
      </g>
    </g>
  </g>
  <g
     transform="translate(568.20996,149.75707)"
     id="g51">
    <g
       fill="#000000"
       fill-opacity="1"
       id="g50"
       transform="matrix(1.33333,0,0,1.33333,-2.09483,-2.6775)">
      <g
         id="g49"
         transform="translate(1.993,18.93)">
        <path
           d="m 12.21875,-7.328125 c -0.578125,2.078125 -1.4375,5.140625 -1.4375,7.0625 0,0.65625 0.421875,0.953125 1.015625,0.953125 0.984375,0 2.84375,-1.0625 2.84375,-1.5625 0,-0.109375 -0.125,-0.171875 -0.25,-0.171875 -0.296875,0 -0.734375,0.234375 -1.015625,0.375 -0.3125,-0.046875 -0.484375,-0.296875 -0.484375,-0.640625 0,-3.03125 2.828125,-11.703125 3.546875,-13.53125 0.296875,-0.6875 0.609375,-1.703125 0.609375,-1.90625 0,-0.171875 -0.140625,-0.171875 -0.25,-0.171875 -0.515625,0 -1.625,0.671875 -1.828125,1.140625 -0.328125,0.859375 -0.375,0.984375 -0.671875,1.90625 -0.8125,2.359375 -3.265625,6.4375 -5.71875,9.3125 -0.765625,0.875 -3.203125,3.75 -4.953125,3.75 -1.203125,0 -1.9375,-1.015625 -1.9375,-2.65625 0,-1.734375 0.96875,-3.96875 2.453125,-7.359375 0.890625,-2.03125 1.640625,-3.796875 1.640625,-4.90625 0,-1.171875 -0.796875,-1.1875 -1.25,-1.1875 -1.90625,0 -4.28125,1.53125 -4.28125,2.046875 0,0.15625 0.171875,0.15625 0.265625,0.15625 0.296875,0 0.75,-0.203125 1.140625,-0.46875 0.171875,-0.125 0.578125,-0.375 1.25,-0.375 0.53125,0 0.765625,0.34375 0.765625,0.890625 0,1.09375 -0.890625,3.125 -1.9375,5.5 -1.640625,3.71875 -2.15625,5.3125 -2.15625,6.75 0,1.625 0.640625,2.96875 2.40625,2.96875 1.53125,0 3.796875,-1.015625 6.3125,-3.375 1.71875,-1.609375 2.828125,-3.09375 3.890625,-4.53125 z m 0,0"
           id="path49" />
      </g>
    </g>
  </g>
  <g
     transform="translate(550.79185,56.134725)"
     id="g59">
    <g
       fill="#000000"
       fill-opacity="1"
       id="g53"
       transform="matrix(1.33333,0,0,1.33333,-2.09483,-2.67317)">
      <g
         id="g52"
         transform="translate(1.993,20.583)">
        <path
           d="m 12.21875,-7.328125 c -0.578125,2.078125 -1.4375,5.140625 -1.4375,7.0625 0,0.65625 0.421875,0.953125 1.015625,0.953125 0.984375,0 2.84375,-1.0625 2.84375,-1.5625 0,-0.109375 -0.125,-0.171875 -0.25,-0.171875 -0.296875,0 -0.734375,0.234375 -1.015625,0.375 -0.3125,-0.046875 -0.484375,-0.296875 -0.484375,-0.640625 0,-3.03125 2.828125,-11.703125 3.546875,-13.53125 0.296875,-0.6875 0.609375,-1.703125 0.609375,-1.90625 0,-0.171875 -0.140625,-0.171875 -0.25,-0.171875 -0.515625,0 -1.625,0.671875 -1.828125,1.140625 -0.328125,0.859375 -0.375,0.984375 -0.671875,1.90625 -0.8125,2.359375 -3.265625,6.4375 -5.71875,9.3125 -0.765625,0.875 -3.203125,3.75 -4.953125,3.75 -1.203125,0 -1.9375,-1.015625 -1.9375,-2.65625 0,-1.734375 0.96875,-3.96875 2.453125,-7.359375 0.890625,-2.03125 1.640625,-3.796875 1.640625,-4.90625 0,-1.171875 -0.796875,-1.1875 -1.25,-1.1875 -1.90625,0 -4.28125,1.53125 -4.28125,2.046875 0,0.15625 0.171875,0.15625 0.265625,0.15625 0.296875,0 0.75,-0.203125 1.140625,-0.46875 0.171875,-0.125 0.578125,-0.375 1.25,-0.375 0.53125,0 0.765625,0.34375 0.765625,0.890625 0,1.09375 -0.890625,3.125 -1.9375,5.5 -1.640625,3.71875 -2.15625,5.3125 -2.15625,6.75 0,1.625 0.640625,2.96875 2.40625,2.96875 1.53125,0 3.796875,-1.015625 6.3125,-3.375 1.71875,-1.609375 2.828125,-3.09375 3.890625,-4.53125 z m 0,0"
           id="path51" />
      </g>
    </g>
    <g
       fill="#000000"
       fill-opacity="1"
       id="g9"
       transform="matrix(1.33333,0,0,1.33333,-2.09483,-2.67317)">
      <g
         id="g54"
         transform="translate(19.958691,20.583)">
        <path
           d="m 3.9375,-17.6875 c 0,-0.453125 0,-0.890625 -0.5,-0.890625 -0.484375,0 -0.484375,0.4375 -0.484375,0.890625 V 5.296875 c 0,0.453125 0,0.890625 0.484375,0.890625 0.5,0 0.5,-0.4375 0.5,-0.890625 z m 0,0"
           id="path53" />
      </g>
    </g>
    <g
       fill="#000000"
       fill-opacity="1"
       id="g56"
       transform="matrix(1.33333,0,0,1.33333,-2.09483,-2.67317)">
      <g
         id="g55"
         transform="translate(26.851999,20.583)">
        <path
           d="m 11.640625,-16.609375 c 0,-0.01563 0.109375,-0.34375 0.109375,-0.359375 0,-0.234375 -0.203125,-0.234375 -0.28125,-0.234375 -0.21875,0 -0.25,0.125 -0.34375,0.5 l -4.09375,16.40625 c -2.046875,-0.25 -2.8125,-1.296875 -2.8125,-2.78125 0,-0.546875 0,-1.109375 1.15625,-4.1875 0.328125,-0.890625 0.453125,-1.203125 0.453125,-1.65625 0,-1.109375 -0.796875,-2 -1.96875,-2 -2.265625,0 -3.1875,3.59375 -3.1875,3.78125 0,0.109375 0.09375,0.234375 0.265625,0.234375 0.234375,0 0.25,-0.109375 0.34375,-0.453125 0.609375,-2.15625 1.59375,-3.078125 2.515625,-3.078125 0.21875,0 0.640625,0.03125 0.640625,0.828125 0,0.09375 0,0.640625 -0.421875,1.734375 -1.34375,3.515625 -1.34375,4.0625 -1.34375,4.625 0,2.375 1.984375,3.296875 4.21875,3.46875 C 6.6875,0.984375 6.515625,1.78125 6.3125,2.546875 5.921875,4.046875 5.75,4.734375 5.75,4.828125 5.75,5.0625 5.953125,5.0625 6.015625,5.0625 c 0.0625,0 0.15625,0 0.203125,-0.109375 C 6.3125,4.859375 7.328125,0.6875 7.4375,0.25 c 0.90625,0 2.875,0 5.109375,-2.3125 0.8125,-0.890625 1.546875,-2.03125 1.96875,-3.09375 0.25,-0.640625 0.84375,-2.84375 0.84375,-4.109375 0,-1.484375 -0.734375,-1.65625 -0.984375,-1.65625 -0.59375,0 -1.140625,0.59375 -1.140625,1.078125 0,0.296875 0.171875,0.46875 0.265625,0.578125 0.234375,0.21875 0.890625,0.890625 0.890625,2.171875 0,0.90625 -0.484375,2.734375 -2.078125,4.515625 C 10.234375,-0.25 8.328125,-0.25 7.578125,-0.25 Z m 0,0"
           id="path54" />
      </g>
    </g>
    <g
       fill="#000000"
       fill-opacity="1"
       id="g12"
       transform="matrix(1.33333,0,0,1.33333,-2.09483,-2.67317)">
      <g
         id="g57"
         transform="translate(43.52,20.583)">
        <path
           d="m 7.578125,6.046875 c 0,-0.03125 0,-0.078125 -0.0625,-0.15625 -1.140625,-1.15625 -4.1875,-4.328125 -4.1875,-12.0625 0,-7.734375 2.984375,-10.875 4.203125,-12.109375 0,-0.03125 0.046875,-0.07813 0.046875,-0.15625 0,-0.07813 -0.0625,-0.125 -0.171875,-0.125 -0.265625,0 -2.375,1.828125 -3.59375,4.5625 -1.234375,2.75 -1.578125,5.421875 -1.578125,7.8125 0,1.78125 0.171875,4.796875 1.65625,8 1.1875,2.578125 3.21875,4.375 3.515625,4.375 0.125,0 0.171875,-0.046875 0.171875,-0.140625 z m 0,0"
           id="path56" />
      </g>
      <g
         id="g58"
         transform="translate(52.297112,20.583)">
        <path
           d="m 10.40625,-7.953125 c 0,-1.515625 -0.01563,-4.09375 -1.0625,-6.078125 -0.921875,-1.734375 -2.375,-2.34375 -3.671875,-2.34375 -1.1875,0 -2.703125,0.546875 -3.640625,2.328125 -0.984375,1.859375 -1.09375,4.15625 -1.09375,6.09375 0,1.40625 0.03125,3.5625 0.796875,5.453125 1.0625,2.546875 2.96875,2.890625 3.9375,2.890625 1.140625,0 2.875,-0.46875 3.890625,-2.8125 0.75,-1.71875 0.84375,-3.71875 0.84375,-5.53125 z M 5.671875,0 C 4.09375,0 3.140625,-1.359375 2.796875,-3.25 2.53125,-4.703125 2.53125,-6.84375 2.53125,-8.234375 c 0,-1.90625 0,-3.484375 0.3125,-5 0.484375,-2.109375 1.859375,-2.75 2.828125,-2.75 1.015625,0 2.328125,0.671875 2.796875,2.703125 0.328125,1.40625 0.359375,3.078125 0.359375,5.046875 0,1.625 0,3.59375 -0.296875,5.0625 C 8,-0.46875 6.546875,0 5.671875,0 Z m 0,0"
           id="path17" />
      </g>
      <g
         id="use12"
         transform="translate(63.664474,20.583)">
        <path
           d="m 6.515625,-6.171875 c 0,-1.78125 -0.171875,-4.8125 -1.65625,-8 C 3.671875,-16.75 1.640625,-18.5625 1.34375,-18.5625 c -0.078125,0 -0.171875,0.03125 -0.171875,0.15625 0,0.04687 0.015625,0.0625 0.046875,0.125 1.1875,1.234375 4.203125,4.375 4.203125,12.09375 0,7.71875 -3,10.875 -4.203125,12.109375 C 1.1875,5.96875 1.171875,6 1.171875,6.046875 c 0,0.125 0.09375,0.140625 0.171875,0.140625 0.265625,0 2.375,-1.828125 3.59375,-4.546875 1.234375,-2.75 1.578125,-5.4375 1.578125,-7.8125 z m 0,0"
           id="path18" />
      </g>
    </g>
    <g
       fill="#000000"
       fill-opacity="1"
       id="g13"
       transform="matrix(1.33333,0,0,1.33333,-2.09483,-2.67317)">
      <g
         id="use13"
         transform="translate(72.443001,20.583)">
        <path
           d="m 6.765625,-5.78125 c 0.125,-0.296875 0.125,-0.34375 0.125,-0.40625 0,-0.078125 0,-0.125 -0.125,-0.421875 l -4.34375,-11.40625 c -0.140625,-0.421875 -0.296875,-0.5625 -0.5625,-0.5625 -0.265625,0 -0.5,0.21875 -0.5,0.484375 0,0.07813 0,0.125 0.125,0.40625 L 5.875,-6.1875 1.484375,5.25 c -0.125,0.28125 -0.125,0.328125 -0.125,0.453125 0,0.265625 0.234375,0.484375 0.5,0.484375 C 2.1875,6.1875 2.28125,5.953125 2.375,5.703125 Z m 0,0"
           id="path19" />
      </g>
    </g>
  </g>
  <g
     transform="translate(63.084738,56.134725)"
     id="g60">
    <g
       fill="#000000"
       fill-opacity="1"
       id="g7"
       transform="matrix(1.33333,0,0,1.33333,-6.59483,-2.67317)">
      <g
         id="use6"
         transform="translate(1.993,20.583)">
        <path
           d="m 3.9375,-17.6875 c 0,-0.453125 0,-0.890625 -0.5,-0.890625 -0.484375,0 -0.484375,0.4375 -0.484375,0.890625 V 5.296875 c 0,0.453125 0,0.890625 0.484375,0.890625 0.5,0 0.5,-0.4375 0.5,-0.890625 z m 0,0"
           id="path11" />
      </g>
    </g>
    <g
       fill="#000000"
       fill-opacity="1"
       id="g8"
       transform="matrix(1.33333,0,0,1.33333,-6.59483,-2.67317)">
      <g
         id="use7"
         transform="translate(8.8780003,20.583)">
        <path
           d="m 11.640625,-16.609375 c 0,-0.01563 0.109375,-0.34375 0.109375,-0.359375 0,-0.234375 -0.203125,-0.234375 -0.28125,-0.234375 -0.21875,0 -0.25,0.125 -0.34375,0.5 l -4.09375,16.40625 c -2.046875,-0.25 -2.8125,-1.296875 -2.8125,-2.78125 0,-0.546875 0,-1.109375 1.15625,-4.1875 0.328125,-0.890625 0.453125,-1.203125 0.453125,-1.65625 0,-1.109375 -0.796875,-2 -1.96875,-2 -2.265625,0 -3.1875,3.59375 -3.1875,3.78125 0,0.109375 0.09375,0.234375 0.265625,0.234375 0.234375,0 0.25,-0.109375 0.34375,-0.453125 0.609375,-2.15625 1.59375,-3.078125 2.515625,-3.078125 0.21875,0 0.640625,0.03125 0.640625,0.828125 0,0.09375 0,0.640625 -0.421875,1.734375 -1.34375,3.515625 -1.34375,4.0625 -1.34375,4.625 0,2.375 1.984375,3.296875 4.21875,3.46875 C 6.6875,0.984375 6.515625,1.78125 6.3125,2.546875 5.921875,4.046875 5.75,4.734375 5.75,4.828125 5.75,5.0625 5.953125,5.0625 6.015625,5.0625 c 0.0625,0 0.15625,0 0.203125,-0.109375 C 6.3125,4.859375 7.328125,0.6875 7.4375,0.25 c 0.90625,0 2.875,0 5.109375,-2.3125 0.8125,-0.890625 1.546875,-2.03125 1.96875,-3.09375 0.25,-0.640625 0.84375,-2.84375 0.84375,-4.109375 0,-1.484375 -0.734375,-1.65625 -0.984375,-1.65625 -0.59375,0 -1.140625,0.59375 -1.140625,1.078125 0,0.296875 0.171875,0.46875 0.265625,0.578125 0.234375,0.21875 0.890625,0.890625 0.890625,2.171875 0,0.90625 -0.484375,2.734375 -2.078125,4.515625 C 10.234375,-0.25 8.328125,-0.25 7.578125,-0.25 Z m 0,0"
           id="path12" />
      </g>
    </g>
    <g
       fill="#000000"
       fill-opacity="1"
       id="g10"
       transform="matrix(1.33333,0,0,1.33333,-6.59483,-2.67317)">
      <g
         id="use8"
         transform="translate(25.546,20.583)">
        <path
           d="m 7.578125,6.046875 c 0,-0.03125 0,-0.078125 -0.0625,-0.15625 -1.140625,-1.15625 -4.1875,-4.328125 -4.1875,-12.0625 0,-7.734375 2.984375,-10.875 4.203125,-12.109375 0,-0.03125 0.046875,-0.07813 0.046875,-0.15625 0,-0.07813 -0.0625,-0.125 -0.171875,-0.125 -0.265625,0 -2.375,1.828125 -3.59375,4.5625 -1.234375,2.75 -1.578125,5.421875 -1.578125,7.8125 0,1.78125 0.171875,4.796875 1.65625,8 1.1875,2.578125 3.21875,4.375 3.515625,4.375 0.125,0 0.171875,-0.046875 0.171875,-0.140625 z m 0,0"
           id="path13" />
      </g>
      <g
         id="use9"
         transform="translate(34.323112,20.583)">
        <path
           d="m 10.40625,-7.953125 c 0,-1.515625 -0.01563,-4.09375 -1.0625,-6.078125 -0.921875,-1.734375 -2.375,-2.34375 -3.671875,-2.34375 -1.1875,0 -2.703125,0.546875 -3.640625,2.328125 -0.984375,1.859375 -1.09375,4.15625 -1.09375,6.09375 0,1.40625 0.03125,3.5625 0.796875,5.453125 1.0625,2.546875 2.96875,2.890625 3.9375,2.890625 1.140625,0 2.875,-0.46875 3.890625,-2.8125 0.75,-1.71875 0.84375,-3.71875 0.84375,-5.53125 z M 5.671875,0 C 4.09375,0 3.140625,-1.359375 2.796875,-3.25 2.53125,-4.703125 2.53125,-6.84375 2.53125,-8.234375 c 0,-1.90625 0,-3.484375 0.3125,-5 0.484375,-2.109375 1.859375,-2.75 2.828125,-2.75 1.015625,0 2.328125,0.671875 2.796875,2.703125 0.328125,1.40625 0.359375,3.078125 0.359375,5.046875 0,1.625 0,3.59375 -0.296875,5.0625 C 8,-0.46875 6.546875,0 5.671875,0 Z m 0,0"
           id="path14" />
      </g>
      <g
         id="use10"
         transform="translate(45.690475,20.583)">
        <path
           d="m 6.515625,-6.171875 c 0,-1.78125 -0.171875,-4.8125 -1.65625,-8 C 3.671875,-16.75 1.640625,-18.5625 1.34375,-18.5625 c -0.078125,0 -0.171875,0.03125 -0.171875,0.15625 0,0.04687 0.015625,0.0625 0.046875,0.125 1.1875,1.234375 4.203125,4.375 4.203125,12.09375 0,7.71875 -3,10.875 -4.203125,12.109375 C 1.1875,5.96875 1.171875,6 1.171875,6.046875 c 0,0.125 0.09375,0.140625 0.171875,0.140625 0.265625,0 2.375,-1.828125 3.59375,-4.546875 1.234375,-2.75 1.578125,-5.4375 1.578125,-7.8125 z m 0,0"
           id="path15" />
      </g>
    </g>
    <g
       fill="#000000"
       fill-opacity="1"
       id="g11"
       transform="matrix(1.33333,0,0,1.33333,-6.59483,-2.67317)">
      <g
         id="use11"
         transform="translate(54.469002,20.583)">
        <path
           d="m 6.765625,-5.78125 c 0.125,-0.296875 0.125,-0.34375 0.125,-0.40625 0,-0.078125 0,-0.125 -0.125,-0.421875 l -4.34375,-11.40625 c -0.140625,-0.421875 -0.296875,-0.5625 -0.5625,-0.5625 -0.265625,0 -0.5,0.21875 -0.5,0.484375 0,0.07813 0,0.125 0.125,0.40625 L 5.875,-6.1875 1.484375,5.25 c -0.125,0.28125 -0.125,0.328125 -0.125,0.453125 0,0.265625 0.234375,0.484375 0.5,0.484375 C 2.1875,6.1875 2.28125,5.953125 2.375,5.703125 Z m 0,0"
           id="path16" />
      </g>
    </g>
  </g>
  <path
     style="fill:none;stroke:#632b30;stroke-width:3.968;stroke-miterlimit:3.9;stroke-dasharray:none;stroke-opacity:1;marker-end:url(#ArrowTriangleStylized)"
     d="m 267.39527,121.48719 25.03854,3.53806"
     id="path60" />
  <path
     style="fill:none;stroke:#632b30;stroke-width:3.968;stroke-miterlimit:3.9;stroke-dasharray:none;stroke-opacity:1;marker-end:url(#marker62)"
     d="m 442.1207,237.15434 12.79143,-4.89885"
     id="path61" />
</svg>
