<?xml version="1.0" encoding="UTF-8" standalone="no"?>
<!-- Created with Inkscape (http://www.inkscape.org/) -->

<svg
   width="174.77957mm"
   height="29.630671mm"
   viewBox="0 0 174.77956 29.630671"
   version="1.1"
   id="svg5"
   xml:space="preserve"
   inkscape:version="1.3.2 (091e20e, 2023-11-25)"
   sodipodi:docname="IBM_Quantum.svg"
   xmlns:inkscape="http://www.inkscape.org/namespaces/inkscape"
   xmlns:sodipodi="http://sodipodi.sourceforge.net/DTD/sodipodi-0.dtd"
   xmlns="http://www.w3.org/2000/svg"
   xmlns:svg="http://www.w3.org/2000/svg"><sodipodi:namedview
     id="namedview7"
     pagecolor="#ffffff"
     bordercolor="#000000"
     borderopacity="0.25"
     inkscape:showpageshadow="2"
     inkscape:pageopacity="0.0"
     inkscape:pagecheckerboard="0"
     inkscape:deskcolor="#d1d1d1"
     inkscape:document-units="mm"
     showgrid="false"
     inkscape:zoom="0.74755317"
     inkscape:cx="377.23069"
     inkscape:cy="202.66117"
     inkscape:window-width="1440"
     inkscape:window-height="900"
     inkscape:window-x="0"
     inkscape:window-y="0"
     inkscape:window-maximized="0"
     inkscape:current-layer="g4929" /><defs
     id="defs2"><rect
       x="-38.359867"
       y="235.52527"
       width="811.12213"
       height="492.80942"
       id="rect356" /></defs><g
     inkscape:label="Layer 1"
     inkscape:groupmode="layer"
     id="layer1"
     transform="translate(-2.1235948,-2.8314597)"><g
       id="g4929"
       transform="translate(-5.0796957,-133.1914)"><path
         id="path4922"
         style="font-size:33.3333px;line-height:1;font-family:'IBM Plex Sans';-inkscape-font-specification:'IBM Plex Sans';text-align:start;text-anchor:start;white-space:pre;fill:#161616;fill-opacity:1;stroke:none;stroke-width:3.01028"
         d="m 144.735,186.07922 c 2.57525,0 4.53987,-1.27435 5.41599,-3.13277 l -1.51329,-1.08851 c -0.71682,1.51329 -2.04427,2.36286 -3.76995,2.36286 -2.5487,0 -4.06199,-1.77878 -4.06199,-4.14164 v -0.63717 h 9.84965 v -1.00886 c 0,-3.87615 -2.25665,-6.69033 -5.92041,-6.69033 -3.71684,0 -6.15934,2.81418 -6.15934,7.16821 0,4.35402 2.4425,7.16821 6.15934,7.16821 z m 0,-12.55764 c 2.17701,0 3.63721,1.61949 3.63721,4.03544 v 0.29203 h -7.56645 v -0.18584 c 0,-2.3894 1.61949,-4.14163 3.92924,-4.14163 z m -18.10632,12.23905 v -9.50451 c 0,-1.75223 1.64603,-2.6018 3.34516,-2.6018 2.04427,0 3.10623,1.24781 3.10623,3.6903 v 8.41601 h 2.12391 v -8.78769 c 0,-3.31862 -1.77878,-5.23014 -4.59296,-5.23014 -2.04427,0 -3.21242,1.00886 -3.87614,2.5487 h -0.1062 v -2.23011 h -2.12391 v 13.69924 z m -13.77884,0.31859 c 4.7788,0 7.85847,-3.37171 7.85847,-9.58416 0,-6.21245 -3.07967,-9.58416 -7.85847,-9.58416 -4.77881,0 -7.85848,3.37171 -7.85848,9.58416 0,6.21245 3.07967,9.58416 7.85848,9.58416 z m 0,-1.99117 c -3.21242,0 -5.46908,-2.38941 -5.46908,-6.05315 v -3.07968 c 0,-3.66375 2.25666,-6.05315 5.46908,-6.05315 3.21242,0 5.46907,2.3894 5.46907,6.05315 v 3.07968 c 0,3.66374 -2.25665,6.05315 -5.46907,6.05315 z m -34.460423,1.67258 v -9.50451 c 0,-1.75223 1.592934,-2.6018 3.265516,-2.6018 2.017717,0 2.94693,1.24781 2.94693,3.6903 v 8.41601 h 2.123913 v -9.50451 c 0,-1.75223 1.539837,-2.6018 3.212418,-2.6018 2.070818,0 3.000028,1.27435 3.000028,3.6903 v 8.41601 h 2.12391 v -8.78769 c 0,-3.31862 -1.67258,-5.23014 -4.460215,-5.23014 -2.336304,0 -3.66375,1.3009 -4.168179,2.78764 h -0.0531 c -0.74337,-1.96462 -2.389403,-2.78764 -4.194729,-2.78764 -2.123913,0 -3.079674,1.14161 -3.690299,2.5487 h -0.106196 v -2.23011 h -2.123913 v 13.69924 z m -11.54877,0.31859 c 2.575244,0 4.539865,-1.27435 5.415979,-3.13277 l -1.513289,-1.08851 c -0.716821,1.51329 -2.044266,2.36286 -3.769945,2.36286 -2.548696,0 -4.061985,-1.77878 -4.061985,-4.14164 v -0.63717 h 9.849648 v -1.00886 c 0,-3.87615 -2.256658,-6.69033 -5.920408,-6.69033 -3.716848,0 -6.159348,2.81418 -6.159348,7.16821 0,4.35402 2.4425,7.16821 6.159348,7.16821 z m 0,-12.55764 c 2.177011,0 3.637201,1.61949 3.637201,4.03544 v 0.29203 h -7.566441 v -0.18584 c 0,-2.3894 1.619485,-4.14163 3.92924,-4.14163 z m -8.681448,12.23905 v -1.85842 h -2.787637 v -9.98239 h 3.000028 v -1.85843 h -3.000028 v -3.7965 h -1.911521 v 2.5487 c 0,0.92921 -0.292039,1.2478 -1.194701,1.2478 h -1.274348 v 1.85843 h 2.256657 v 9.58415 c 0,1.32745 0.796468,2.25666 2.256658,2.25666 z m -14.309801,0.31859 c 3.132772,0 5.070842,-1.61948 5.070842,-4.27437 0,-2.07082 -1.168152,-3.39827 -4.194728,-3.8496 l -1.061957,-0.15929 c -1.69913,-0.2655 -2.628342,-0.79647 -2.628342,-2.12392 0,-1.3009 0.929212,-2.12391 2.68144,-2.12391 1.752228,0 2.920381,0.82301 3.531006,1.67258 l 1.407092,-1.27435 c -1.115054,-1.38054 -2.575245,-2.20356 -4.778804,-2.20356 -2.787636,0 -4.885001,1.32745 -4.885001,4.03544 0,2.54869 1.884973,3.5841 4.40712,3.95579 l 1.088506,0.15929 c 1.805326,0.26549 2.389402,1.0885 2.389402,2.15047 0,1.40708 -1.061957,2.2301 -2.867283,2.2301 -1.725679,0 -3.000027,-0.76992 -4.061984,-2.09736 l -1.513288,1.22124 c 1.22125,1.61949 2.893832,2.68145 5.415979,2.68145 z m -12.132776,-4.69916 -0.743369,2.23011 h -0.132745 l -0.637174,-2.23011 -3.292065,-9.31867 h -2.123913 l 5.12394,14.23022 -1.035408,2.92038 h -2.150461 v 1.85842 h 1.088505 c 2.017717,0 2.575244,-0.47788 3.185869,-2.12391 l 6.1328,-16.88511 h -2.097364 z m -15.132864,4.69916 c 3.982337,0 6.37174,-2.17701 6.37174,-5.57528 0,-2.76108 -1.566386,-4.35402 -5.177038,-5.17703 l -1.513288,-0.34514 c -2.336305,-0.53098 -3.477909,-1.32745 -3.477909,-3.07968 0,-1.99116 1.460191,-3.02657 3.823044,-3.02657 2.150462,0 3.557555,0.87612 4.566413,2.28321 l 1.672582,-1.22125 c -1.380543,-1.96462 -3.345163,-3.02658 -6.132799,-3.02658 -3.637202,0 -6.132799,1.77877 -6.132799,5.07084 0,2.84074 1.858424,4.32747 5.230135,5.0974 l 1.513289,0.34513 c 2.4425,0.55753 3.424809,1.43364 3.424809,3.18587 0,2.12391 -1.433641,3.50446 -4.088532,3.50446 -2.150462,0 -3.690299,-0.92921 -4.991196,-2.6549 l -1.646032,1.38055 c 1.486739,2.01772 3.584103,3.23897 6.557581,3.23897 z m 145.567392,-27.4047 v -9.02664 c 0,-1.38054 1.16815,-2.04426 2.30976,-2.04426 1.27434,0 1.91151,0.84956 1.91151,2.65489 v 8.41601 h 3.92924 v -9.02664 c 0,-1.38054 1.14161,-2.04426 2.30976,-2.04426 1.3009,0 1.91153,0.84956 1.91153,2.65489 v 8.41601 h 3.92924 v -8.7346 c 0,-3.50446 -1.48675,-5.52218 -4.16819,-5.52218 -2.12391,0 -3.7434,1.24781 -4.24782,2.81419 h -0.0796 c -0.61063,-1.83187 -1.99117,-2.81419 -3.90269,-2.81419 -2.07081,0 -3.23897,1.19471 -3.7434,2.68145 h -0.15929 v -2.36286 h -3.92924 v 13.93819 z m -11.52219,0 h 3.92924 v -13.93819 h -3.92924 v 9.05318 c 0,1.32745 -1.24779,2.01772 -2.46905,2.01772 -1.43363,0 -1.99116,-0.95576 -1.99116,-2.65489 v -8.41601 h -3.92924 v 8.76114 c 0,3.50446 1.51329,5.49563 4.35402,5.49563 2.2832,0 3.42481,-1.2478 3.90269,-2.65489 h 0.13274 z m -11.17708,0 v -3.05313 h -2.5487 v -7.83193 h 2.76108 v -3.05313 h -2.76108 v -3.76995 h -3.53101 v 2.28322 c 0,0.95576 -0.31858,1.48673 -1.38054,1.48673 h -0.98231 v 3.05313 h 1.96462 v 6.82307 c 0,2.65489 1.43364,4.06199 4.14163,4.06199 z m -19.11517,0 v -9.02664 c 0,-1.38054 1.24779,-2.04426 2.52214,-2.04426 1.43364,0 1.93807,0.87611 1.93807,2.65489 v 8.41601 h 3.92924 v -8.7346 c 0,-3.50446 -1.51329,-5.52218 -4.35402,-5.52218 -2.20357,0 -3.37171,1.22125 -3.87614,2.68145 h -0.15929 v -2.36286 h -3.92925 v 13.93819 z m -6.55755,0 v -3.05313 h -1.3009 v -6.10625 c 0,-3.29207 -2.01771,-5.0974 -5.94695,-5.0974 -2.92038,0 -4.51332,1.00887 -5.62837,2.6549 l 2.3363,2.07081 c 0.61063,-0.84957 1.43364,-1.64603 3.00003,-1.64603 1.64603,0 2.30975,0.84956 2.30975,2.20356 v 0.87612 h -2.20356 c -3.69029,0 -5.9735,1.40708 -5.9735,4.35402 0,2.41595 1.53984,4.06198 4.32747,4.06198 2.12391,0 3.66375,-0.95576 4.08853,-2.76109 h 0.1593 c 0.23894,1.48675 1.2478,2.44251 2.65489,2.44251 z m -7.61954,-2.41595 c -1.16815,0 -1.83187,-0.47788 -1.83187,-1.48675 v -0.39823 c 0,-1.00886 0.79646,-1.56638 2.30975,-1.56638 h 1.91152 v 1.64603 c 0,1.27434 -1.0885,1.80533 -2.3894,1.80533 z m -12.451408,2.41595 h 3.92924 v -13.93819 h -3.92924 v 9.05318 c 0,1.32745 -1.2478,2.01772 -2.469046,2.01772 -1.433641,0 -1.991169,-0.95576 -1.991169,-2.65489 v -8.41601 h -3.929239 v 8.76114 c 0,3.50446 1.513288,5.49563 4.354022,5.49563 2.283202,0 3.424812,-1.2478 3.902692,-2.65489 h 0.13274 z m -14.628414,1.59293 h -2.840734 v -1.48674 c 3.743396,-0.82301 6.079701,-4.00889 6.079701,-9.37177 0,-6.29209 -3.238967,-9.58416 -8.150517,-9.58416 -4.911549,0 -8.150516,3.29207 -8.150516,9.58416 0,5.52218 2.495598,8.7346 6.451386,9.45142 v 0.76991 c 0,2.5487 1.247799,3.92924 4.115082,3.92924 h 2.495598 z m -4.91155,-4.85845 c -2.415951,0 -3.876141,-1.67259 -3.876141,-4.61951 v -2.76109 c 0,-2.94693 1.46019,-4.61951 3.876141,-4.61951 2.415952,0 3.876142,1.67258 3.876142,4.61951 v 2.76109 c 0,2.94692 -1.46019,4.61951 -3.876142,4.61951 z m -34.832084,3.26552 h 2.177011 v -15.61077 h 0.132744 l 1.566386,3.10622 4.433669,8.07087 4.433669,-8.07087 1.566385,-3.10622 h 0.132745 v 15.61077 h 2.177011 v -18.53115 h -2.867283 l -5.336331,9.98239 h -0.132745 l -5.309783,-9.98239 h -2.973478 z m -17.336437,0 h 8.416006 c 2.734538,0 4.778804,-2.30976 4.778804,-5.36289 0,-3.07967 -2.309755,-4.22128 -3.637201,-4.30092 v -0.1593 c 1.22125,-0.18584 3.000027,-1.16815 3.000027,-3.92923 0,-2.89383 -1.884972,-4.77881 -4.938098,-4.77881 h -7.619538 z m 2.230109,-8.60185 h 5.495625 c 1.911522,0 3.079674,1.00885 3.079674,2.86728 v 0.90266 c 0,1.85843 -1.168152,2.86728 -3.079674,2.86728 h -5.495625 z m 0,-7.96468 h 5.12394 c 1.752229,0 2.814185,0.92921 2.814185,2.57525 v 0.90266 c 0,1.64603 -1.061956,2.57524 -2.814185,2.57524 h -5.12394 z m -6.292083,16.56653 v -1.85843 h -2.601794 v -14.8143 h 2.601794 v -1.85842 h -7.433696 v 1.85842 h 2.601794 v 14.8143 h -2.601794 v 1.85843 z" /></g></g></svg>
