<svg width="549" height="403" xmlns="http://www.w3.org/2000/svg" xmlns:xlink="http://www.w3.org/1999/xlink" xml:space="preserve" overflow="hidden"><g transform="translate(-684 -166)"><g><g><g><g><path d="M765.861 367.732C769.689 368.627 773.352 370.191 776.703 372.248 782.406 375.745 787.215 380.692 790.525 386.509 793.836 392.321 795.637 398.989 795.677 405.676 795.736 415.871 791.829 425.596 788.855 435.345 787.368 440.218 786.099 445.189 785.674 450.269 785.249 455.349 785.695 460.562 787.545 465.311 790.598 473.146 797.155 479.057 803.937 484.028 810.719 489 818.031 493.417 823.684 499.644 830.545 507.198 834.522 516.937 840.854 524.941 849.134 535.412 861.149 542.466 873.807 546.72 886.465 550.974 899.835 552.621 913.131 553.853 940.53 556.395 968.096 557.276 995.351 561.079 1011.63 563.355 1027.78 566.664 1044.15 568.093 1060.53 569.523 1077.34 569.009 1092.93 563.79 1118.5 555.238 1138.4 534.918 1154.37 513.193 1172.49 488.544 1186.83 461.364 1203.16 435.494 1212.78 420.244 1223.23 405.187 1228.8 388.037 1231.59 379.46 1233.11 370.403 1232.51 361.406 1231.92 352.408 1229.15 343.465 1223.94 336.109 1217.33 326.79 1207.26 320.503 1196.86 315.779 1186.46 311.061 1175.49 307.658 1165.21 302.678 1141.68 291.279 1122.57 271.835 1109.19 249.371 1098.63 231.637 1091.4 211.942 1079.38 195.161 1071.17 183.701 1060.35 173.504 1046.94 169.153 1040.24 166.978 1032.98 166.34 1026.08 167.757 1019.17 169.172 1012.65 172.697 1008 177.995 1002.9 183.805 1000.3 191.316 997.102 198.356 995.505 201.876 993.724 205.337 991.394 208.424 989.069 211.511 986.166 214.225 982.703 215.942 978.36 218.094 973.305 218.58 968.517 217.837 963.729 217.095 959.183 215.179 954.988 212.752 946.599 207.897 939.53 201.02 931.201 196.065 920.991 189.99 909.149 186.996 897.302 186.133 885.451 185.271 873.54 186.465 861.797 188.307 838.321 191.993 814.818 198.3 791.159 196.065 779.465 194.96 768.081 191.787 756.547 189.569 745.013 187.351 733.011 186.099 721.589 188.836 709.773 191.668 698.983 198.919 692.302 209.068 685.621 219.217 683.239 232.206 686.353 243.95 688.996 253.92 695.232 262.469 700.712 271.206 703.452 275.575 706.039 280.068 707.917 284.871 709.795 289.673 710.953 294.815 710.747 299.968 710.545 305.043 709.033 309.984 707.09 314.676 705.146 319.371 702.766 323.867 700.711 328.512 698.657 333.156 696.916 337.999 696.35 343.049 695.785 348.095 696.467 353.392 699.002 357.79 701.96 362.929 707.241 366.461 712.908 368.202 718.576 369.943 724.629 370.042 730.535 369.518 736.44 368.993 742.277 367.871 748.169 367.213 754.062 366.555 760.089 366.377 765.861 367.732Z" fill="#A53860" fill-rule="nonzero" fill-opacity="0.266423"/><path d="M928.405 406.906 986.954 323.405" stroke="#ADB5BD" stroke-width="2.72469" stroke-linecap="butt" stroke-linejoin="miter" stroke-miterlimit="3.9" stroke-opacity="1" fill="none" fill-rule="nonzero"/><path d="M991.646 316.713C990.415 320.841 989.518 326.867 990.184 330.662 990.184 330.662 985.723 327.534 986.171 324.521 983.492 325.97 979.03 322.841 979.03 322.841 982.825 322.174 988.185 319.277 991.646 316.713Z" fill="#000000" fill-rule="evenodd" fill-opacity="1"/><path d="M953.444 389.327C943.385 389.327 935.231 381.173 935.231 371.114 935.231 361.055 943.385 352.901 953.444 352.901 963.503 352.901 971.657 361.056 971.657 371.114 971.657 381.173 963.503 389.327 953.444 389.327Z" fill="#495057" fill-rule="nonzero" fill-opacity="1"/><path d="M1036.81 370.665C1036.81 412.727 1005.51 448.221 963.781 453.485 922.048 458.747 882.918 432.135 872.475 391.388 862.033 350.644 883.538 308.491 922.656 293.033" stroke="#03071E" stroke-width="3.19748" stroke-linecap="butt" stroke-linejoin="miter" stroke-miterlimit="3.9" stroke-opacity="1" fill="none" fill-rule="nonzero"/><path d="M1000.85 412.771C1012.64 426.345 1016.13 418.263 1020.83 427.272 1026.47 434.82 1027.16 432.734 1030.3 430.426 1033.48 428.098 1037.18 431.242 1037.39 435.233L1037.48 437.067C1037.86 444.413 1043.97 448.746 1051.27 448.534 1053.62 448.464 1056.34 449.179 1060.19 451.729 1066.32 455.79 1071.28 466.209 1072.43 473.485L1073.68 481.385" stroke="#E85D04" stroke-width="2.47893" stroke-linecap="butt" stroke-linejoin="miter" stroke-miterlimit="3.9" stroke-opacity="1" fill="none" fill-rule="nonzero"/><path d="M995.973 407.157C999.347 409.151 1004.47 411.269 1007.97 411.515 1007.97 411.515 1004.22 414.766 1001.66 413.707 1002.35 416.391 998.61 419.643 998.61 419.643 998.856 416.146 997.476 410.777 995.973 407.157Z" fill="#000000" fill-rule="evenodd" fill-opacity="1"/><path d="M923.488 333.894C911.698 320.321 908.212 328.402 903.506 319.394 897.873 311.846 897.177 313.932 894.034 316.24 890.859 318.567 887.161 315.423 886.949 311.433L886.859 309.599C886.476 302.253 880.369 297.92 873.073 298.131 870.716 298.202 867.995 297.486 864.145 294.937 858.018 290.876 853.061 280.456 851.912 273.181L850.662 265.281" stroke="#E85D04" stroke-width="2.47893" stroke-linecap="butt" stroke-linejoin="miter" stroke-miterlimit="3.9" stroke-opacity="1" fill="none" fill-rule="nonzero"/><path d="M928.365 339.509C924.991 337.514 919.868 335.397 916.371 335.151 916.371 335.151 920.114 331.9 922.676 332.959 921.986 330.274 925.729 327.023 925.729 327.023 925.483 330.52 926.863 335.889 928.365 339.509Z" fill="#000000" fill-rule="evenodd" fill-opacity="1"/><path d="M912 425.331C897.379 435.794 905.098 440.024 895.687 443.863 887.644 448.762 889.655 449.651 891.657 452.997 893.677 456.376 890.199 459.763 886.206 459.599L884.372 459.517C877.022 459.208 872.135 464.881 871.661 472.164 871.509 474.518 870.542 477.16 867.642 480.753 863.023 486.471 852.184 490.428 844.833 490.889L836.85 491.391" stroke="#E85D04" stroke-width="2.47892" stroke-linecap="butt" stroke-linejoin="miter" stroke-miterlimit="3.9" stroke-opacity="1" fill="none" fill-rule="nonzero"/><path d="M918.048 421.003C915.745 424.175 913.156 429.076 912.583 432.534 912.583 432.534 909.698 428.503 910.992 426.052 908.255 426.487 905.37 422.455 905.37 422.455 908.828 423.028 914.303 422.159 918.048 421.003Z" fill="#000000" fill-rule="evenodd" fill-opacity="1"/><path d="M927.65 496.532C927.65 495.761 928.15 494.532 930.234 494.407 930.317 494.386 930.4 494.303 930.4 494.199 930.4 493.991 930.254 493.991 930.046 493.991 928.129 493.991 926.379 494.949 926.359 496.366L926.359 500.741C926.359 501.47 926.359 502.095 925.609 502.72 924.921 503.282 924.213 503.303 923.775 503.324 923.692 503.345 923.609 503.428 923.609 503.553 923.609 503.741 923.734 503.741 923.921 503.761 925.171 503.824 926.088 504.511 926.317 505.449 926.359 505.657 926.359 505.699 926.359 506.386L926.359 510.178C926.359 510.991 926.359 511.595 927.275 512.324 928.025 512.886 929.296 513.095 930.046 513.095 930.254 513.095 930.4 513.095 930.4 512.886 930.4 512.699 930.275 512.699 930.088 512.678 928.879 512.616 927.942 511.991 927.713 511.011 927.65 510.845 927.65 510.803 927.65 510.116L927.65 506.116C927.65 505.22 927.484 504.907 926.879 504.282 926.484 503.886 925.921 503.699 925.379 503.553 926.963 503.095 927.65 502.22 927.65 501.116Z" fill="#000000" fill-rule="nonzero" fill-opacity="1"/><path d="M941.36 500.595C941.339 500.532 941.256 500.386 941.256 500.324 941.256 500.303 941.277 500.282 941.61 500.053L943.464 498.595C946.027 496.595 946.86 495.928 948.193 495.824 948.318 495.803 948.506 495.803 948.506 495.47 948.506 495.366 948.464 495.261 948.298 495.261 948.089 495.261 947.86 495.303 947.652 495.303L946.923 495.303C946.339 495.303 945.693 495.261 945.131 495.261 944.985 495.261 944.756 495.261 944.756 495.616 944.756 495.803 944.902 495.824 945.006 495.824 945.214 495.845 945.464 495.907 945.464 496.178 945.464 496.553 944.902 497.011 944.735 497.136L937.256 502.97 938.839 496.657C939.006 496.011 939.048 495.824 940.402 495.824 940.777 495.824 940.943 495.824 940.943 495.449 940.943 495.261 940.756 495.261 940.652 495.261 940.318 495.261 939.902 495.303 939.548 495.303L937.277 495.303C936.943 495.303 936.527 495.261 936.173 495.261 936.027 495.261 935.818 495.261 935.818 495.616 935.818 495.824 935.985 495.824 936.277 495.824 937.443 495.824 937.443 495.97 937.443 496.178 937.443 496.22 937.443 496.324 937.36 496.616L934.777 506.907C934.61 507.574 934.568 507.761 933.235 507.761 932.86 507.761 932.673 507.761 932.673 508.116 932.673 508.324 932.839 508.324 932.964 508.324 933.318 508.324 933.714 508.282 934.068 508.282L936.318 508.282C936.673 508.282 937.068 508.324 937.443 508.324 937.589 508.324 937.798 508.324 937.798 507.97 937.798 507.761 937.631 507.761 937.339 507.761 936.173 507.761 936.173 507.616 936.173 507.428 936.173 507.282 936.298 506.803 936.36 506.511L937.11 503.553 940.027 501.261C940.568 502.491 941.589 504.949 942.381 506.803 942.423 506.928 942.464 507.032 942.464 507.178 942.464 507.741 941.714 507.761 941.527 507.761 941.36 507.761 941.173 507.761 941.173 508.136 941.173 508.324 941.381 508.324 941.443 508.324 942.11 508.324 942.818 508.282 943.485 508.282L944.402 508.282C944.693 508.282 945.006 508.324 945.298 508.324 945.423 508.324 945.631 508.324 945.631 507.97 945.631 507.761 945.443 507.761 945.256 507.761 944.548 507.741 944.298 507.595 944.027 506.907Z" fill="#000000" fill-rule="nonzero" fill-opacity="1"/><path d="M952.17 507.172C952.253 506.839 952.566 505.61 953.482 505.61 953.545 505.61 953.878 505.61 954.149 505.777 953.774 505.86 953.524 506.172 953.524 506.506 953.524 506.714 953.67 506.964 954.024 506.964 954.316 506.964 954.732 506.735 954.732 506.193 954.732 505.506 953.961 505.318 953.503 505.318 952.732 505.318 952.274 506.027 952.107 506.318 951.774 505.443 951.066 505.318 950.67 505.318 949.295 505.318 948.524 507.027 948.524 507.36 948.524 507.506 948.67 507.506 948.691 507.506 948.795 507.506 948.836 507.464 948.857 507.36 949.316 505.943 950.191 505.61 950.649 505.61 950.899 505.61 951.357 505.735 951.357 506.506 951.357 506.922 951.128 507.797 950.649 509.672 950.441 510.485 949.961 511.047 949.378 511.047 949.295 511.047 949.003 511.047 948.711 510.881 949.045 510.797 949.336 510.527 949.336 510.152 949.336 509.797 949.045 509.693 948.857 509.693 948.441 509.693 948.128 510.027 948.128 510.464 948.128 511.068 948.774 511.339 949.357 511.339 950.253 511.339 950.732 510.402 950.753 510.339 950.92 510.818 951.399 511.339 952.191 511.339 953.566 511.339 954.316 509.631 954.316 509.297 954.316 509.152 954.211 509.152 954.17 509.152 954.045 509.152 954.024 509.214 953.982 509.297 953.545 510.735 952.649 511.047 952.232 511.047 951.711 511.047 951.503 510.631 951.503 510.172 951.503 509.881 951.566 509.589 951.711 509.006Z" fill="#000000" fill-rule="nonzero" fill-opacity="1"/><path d="M962.197 512.97C962.197 512.907 962.197 512.866 961.884 512.553 959.968 510.616 958.905 507.47 958.905 503.553 958.905 499.845 959.801 496.657 962.009 494.407 962.197 494.22 962.197 494.199 962.197 494.136 962.197 494.011 962.113 493.991 962.03 493.991 961.78 493.991 960.218 495.366 959.28 497.241 958.301 499.157 957.863 501.22 957.863 503.553 957.863 505.261 958.134 507.532 959.134 509.595 960.259 511.886 961.822 513.116 962.03 513.116 962.113 513.116 962.197 513.095 962.197 512.97Z" fill="#000000" fill-rule="nonzero" fill-opacity="1"/><path d="M967.125 500.636 968.875 500.636C969.229 500.636 969.438 500.636 969.438 500.282 969.438 500.074 969.313 500.074 968.938 500.074L967.25 500.074 967.958 497.282C968.042 497.011 968.042 496.991 968.042 496.845 968.042 496.553 967.792 496.366 967.542 496.366 967.375 496.366 966.938 496.428 966.792 497.032L966.042 500.074 964.25 500.074C963.854 500.074 963.688 500.074 963.688 500.449 963.688 500.636 963.833 500.636 964.188 500.636L965.896 500.636 964.625 505.678C964.479 506.345 964.417 506.553 964.417 506.803 964.417 507.699 965.042 508.511 966.125 508.511 968.042 508.511 969.083 505.72 969.083 505.595 969.083 505.47 969 505.407 968.896 505.407 968.854 505.407 968.771 505.407 968.75 505.491 968.729 505.511 968.708 505.532 968.563 505.845 968.167 506.803 967.292 508.136 966.188 508.136 965.604 508.136 965.563 507.657 965.563 507.241 965.563 507.22 965.563 506.845 965.625 506.616Z" fill="#000000" fill-rule="nonzero" fill-opacity="1"/><path d="M975.431 503.553C975.431 502.116 975.243 499.741 974.16 497.511 973.035 495.22 971.472 493.991 971.264 493.991 971.181 493.991 971.077 494.011 971.077 494.136 971.077 494.199 971.077 494.22 971.41 494.553 973.327 496.491 974.389 499.636 974.389 503.553 974.389 507.261 973.493 510.449 971.285 512.699 971.077 512.866 971.077 512.907 971.077 512.97 971.077 513.095 971.181 513.116 971.264 513.116 971.514 513.116 973.077 511.741 974.014 509.866 974.993 507.928 975.431 505.866 975.431 503.553Z" fill="#000000" fill-rule="nonzero" fill-opacity="1"/><path d="M986.158 500.991C986.158 500.491 985.72 500.074 985.241 500.074 984.678 500.074 984.303 500.511 984.303 500.991 984.303 501.574 984.783 501.928 985.22 501.928 985.741 501.928 986.158 501.532 986.158 500.991ZM986.158 507.386C986.158 506.866 985.72 506.47 985.241 506.47 984.678 506.47 984.303 506.907 984.303 507.386 984.303 507.97 984.783 508.324 985.22 508.324 985.741 508.324 986.158 507.928 986.158 507.386Z" fill="#000000" fill-rule="nonzero" fill-opacity="1"/><path d="M1005.75 503.928C1006.09 503.928 1006.42 503.928 1006.42 503.553 1006.42 503.157 1006.09 503.157 1005.75 503.157L995.398 503.157C995.086 503.157 994.732 503.157 994.732 503.553 994.732 503.928 995.086 503.928 995.398 503.928Z" fill="#000000" fill-rule="nonzero" fill-opacity="1"/><path d="M1011.88 500.636 1013.63 500.636C1013.98 500.636 1014.19 500.636 1014.19 500.282 1014.19 500.074 1014.07 500.074 1013.69 500.074L1012 500.074 1012.71 497.282C1012.8 497.011 1012.8 496.991 1012.8 496.845 1012.8 496.553 1012.55 496.366 1012.3 496.366 1012.13 496.366 1011.69 496.428 1011.55 497.032L1010.8 500.074 1009 500.074C1008.61 500.074 1008.44 500.074 1008.44 500.449 1008.44 500.636 1008.59 500.636 1008.94 500.636L1010.65 500.636 1009.38 505.678C1009.23 506.345 1009.17 506.553 1009.17 506.803 1009.17 507.699 1009.8 508.511 1010.88 508.511 1012.8 508.511 1013.84 505.72 1013.84 505.595 1013.84 505.47 1013.75 505.407 1013.65 505.407 1013.61 505.407 1013.53 505.407 1013.5 505.491 1013.48 505.511 1013.46 505.532 1013.32 505.845 1012.92 506.803 1012.05 508.136 1010.94 508.136 1010.36 508.136 1010.32 507.657 1010.32 507.241 1010.32 507.22 1010.32 506.845 1010.38 506.616Z" fill="#000000" fill-rule="nonzero" fill-opacity="1"/><path d="M1033.02 496.97C1033.23 496.866 1033.37 496.782 1033.37 496.553 1033.37 496.324 1033.23 496.157 1033 496.157 1032.89 496.157 1032.73 496.241 1032.64 496.282L1022.08 501.261C1021.75 501.428 1021.69 501.553 1021.69 501.699 1021.69 501.886 1021.81 502.011 1022.08 502.136L1032.64 507.095C1032.89 507.241 1032.94 507.241 1033 507.241 1033.21 507.241 1033.37 507.053 1033.37 506.845 1033.37 506.678 1033.29 506.574 1032.98 506.407L1022.98 501.699ZM1032.71 510.949C1033.04 510.949 1033.37 510.949 1033.37 510.553 1033.37 510.178 1032.98 510.178 1032.69 510.178L1022.37 510.178C1022.08 510.178 1021.69 510.178 1021.69 510.553 1021.69 510.949 1022.04 510.949 1022.35 510.949Z" fill="#000000" fill-rule="nonzero" fill-opacity="1"/><path d="M1049.36 500.511C1048.75 500.636 1048.52 501.095 1048.52 501.449 1048.52 501.907 1048.88 502.074 1049.15 502.074 1049.73 502.074 1050.13 501.574 1050.13 501.053 1050.13 500.261 1049.21 499.886 1048.4 499.886 1047.23 499.886 1046.59 501.032 1046.42 501.407 1045.98 499.97 1044.79 499.886 1044.44 499.886 1042.5 499.886 1041.46 502.386 1041.46 502.824 1041.46 502.886 1041.54 502.991 1041.67 502.991 1041.81 502.991 1041.86 502.866 1041.9 502.803 1042.54 500.678 1043.84 500.282 1044.38 500.282 1045.25 500.282 1045.42 501.074 1045.42 501.532 1045.42 501.949 1045.31 502.386 1045.06 503.303L1044.42 505.928C1044.15 507.074 1043.59 508.136 1042.56 508.136 1042.48 508.136 1042 508.136 1041.59 507.886 1042.27 507.741 1042.44 507.178 1042.44 506.949 1042.44 506.574 1042.15 506.345 1041.79 506.345 1041.34 506.345 1040.84 506.741 1040.84 507.345 1040.84 508.157 1041.73 508.511 1042.54 508.511 1043.46 508.511 1044.13 507.782 1044.52 507.011 1044.84 508.136 1045.77 508.511 1046.48 508.511 1048.44 508.511 1049.48 506.011 1049.48 505.595 1049.48 505.491 1049.4 505.407 1049.27 505.407 1049.11 505.407 1049.09 505.511 1049.04 505.657 1048.52 507.345 1047.4 508.136 1046.54 508.136 1045.88 508.136 1045.52 507.636 1045.52 506.845 1045.52 506.428 1045.59 506.116 1045.9 504.866L1046.56 502.261C1046.86 501.116 1047.5 500.282 1048.38 500.282 1048.42 500.282 1048.96 500.282 1049.36 500.511Z" fill="#000000" fill-rule="nonzero" fill-opacity="1"/><path d="M1069.17 496.97C1069.37 496.866 1069.52 496.782 1069.52 496.553 1069.52 496.324 1069.37 496.157 1069.15 496.157 1069.04 496.157 1068.87 496.241 1068.79 496.282L1058.23 501.261C1057.9 501.428 1057.83 501.553 1057.83 501.699 1057.83 501.886 1057.96 502.011 1058.23 502.136L1068.79 507.095C1069.04 507.241 1069.08 507.241 1069.15 507.241 1069.35 507.241 1069.52 507.053 1069.52 506.845 1069.52 506.678 1069.44 506.574 1069.12 506.407L1059.12 501.699ZM1068.85 510.949C1069.19 510.949 1069.52 510.949 1069.52 510.553 1069.52 510.178 1069.12 510.178 1068.83 510.178L1058.52 510.178C1058.23 510.178 1057.83 510.178 1057.83 510.553 1057.83 510.949 1058.19 510.949 1058.5 510.949Z" fill="#000000" fill-rule="nonzero" fill-opacity="1"/><path d="M1080.29 500.636 1082.04 500.636C1082.4 500.636 1082.61 500.636 1082.61 500.282 1082.61 500.074 1082.48 500.074 1082.11 500.074L1080.42 500.074 1081.13 497.282C1081.21 497.011 1081.21 496.991 1081.21 496.845 1081.21 496.553 1080.96 496.366 1080.71 496.366 1080.54 496.366 1080.11 496.428 1079.96 497.032L1079.21 500.074 1077.42 500.074C1077.02 500.074 1076.86 500.074 1076.86 500.449 1076.86 500.636 1077 500.636 1077.36 500.636L1079.07 500.636 1077.79 505.678C1077.65 506.345 1077.59 506.553 1077.59 506.803 1077.59 507.699 1078.21 508.511 1079.29 508.511 1081.21 508.511 1082.25 505.72 1082.25 505.595 1082.25 505.47 1082.17 505.407 1082.07 505.407 1082.02 505.407 1081.94 505.407 1081.92 505.491 1081.9 505.511 1081.88 505.532 1081.73 505.845 1081.34 506.803 1080.46 508.136 1079.36 508.136 1078.77 508.136 1078.73 507.657 1078.73 507.241 1078.73 507.22 1078.73 506.845 1078.79 506.616Z" fill="#000000" fill-rule="nonzero" fill-opacity="1"/><path d="M1087.33 510.553C1087.33 511.324 1086.83 512.553 1084.75 512.678 1084.66 512.699 1084.58 512.782 1084.58 512.886 1084.58 513.095 1084.79 513.095 1084.95 513.095 1086.83 513.095 1088.6 512.178 1088.62 510.72L1088.62 506.345C1088.62 505.616 1088.62 504.991 1089.39 504.366 1090.06 503.803 1090.79 503.782 1091.2 503.761 1091.29 503.741 1091.37 503.657 1091.37 503.553 1091.37 503.345 1091.25 503.345 1091.06 503.324 1089.81 503.261 1088.89 502.574 1088.68 501.636 1088.62 501.428 1088.62 501.386 1088.62 500.699L1088.62 496.907C1088.62 496.095 1088.62 495.491 1087.7 494.761 1086.93 494.178 1085.62 493.991 1084.95 493.991 1084.79 493.991 1084.58 493.991 1084.58 494.199 1084.58 494.386 1084.7 494.386 1084.89 494.407 1086.1 494.47 1087.04 495.095 1087.29 496.074 1087.33 496.241 1087.33 496.282 1087.33 496.97L1087.33 500.97C1087.33 501.866 1087.5 502.178 1088.1 502.803 1088.5 503.199 1089.06 503.386 1089.6 503.553 1088.02 503.991 1087.33 504.866 1087.33 505.97Z" fill="#000000" fill-rule="nonzero" fill-opacity="1"/></g></g></g></g></g></svg>